<svg version="1.2" xmlns="http://www.w3.org/2000/svg" viewBox="0 0 500 500" width="500" height="500"><style>.a{fill:#f9fff3}.b{opacity:.1;fill:#2c2a40}.c{fill:#f9b587}.d{fill:#f39568}.e{fill:#2c2a40}.f{fill:#b0b1ca}.g{opacity:.2;fill:#2c2a40}.h{fill:#6c8c31}.i{fill:none}.j{fill:#5b5b6c}.k{fill:#a5c723}.l{fill:#b8e019}.m{fill:#fff}.n{fill:#00497b}.o{fill:#007bb0}</style><path class="a" d="m0 0h500v500h-500z"/><path class="b" d="m411.2 180.8c-8.9-34.8-41.6-32.6-72.6-26.2-16.7 3.5-40 8.3-64.3 1.2-52.5-15.3-112.7-19.1-142.4 0-29.7 19.1-47.6 42.1-39 74.2 8.5 32.2 30.3 61.1 11.8 78.2-18.5 17.2-18.2 82.4 57.9 87.5 76.1 5 68.5-68 118.8-64.6 50.2 3.4 153.4 52.8 157.7 17 4.4-35.9-51.6-61.4-31.5-120.9 4-11.8 7.7-30.5 3.6-46.4z"/><path class="b" d="m236.3 123.9c0 0 1.9-12.5 7.4-12 1.5 0.1 2.6 1.6 3.2 3.3 0.4 1 1.9 0.9 2.2-0.1 1.4-5.1 4.4-12.8 9-12.8 4.7 0 4.9 8.8 4.6 14.2-0.1 0.8 1 1.2 1.4 0.5 1.3-1.8 3.1-3.6 5.3-3.1 4.3 1 3.2 10 3.2 10z"/><path class="b" d="m36.2 241.2c0 0 1.9-12.5 7.4-12 1.5 0.1 2.6 1.7 3.2 3.3 0.4 1 1.9 1 2.2-0.1 1.5-5.1 4.4-12.8 9-12.8 4.7 0 4.9 8.9 4.6 14.3-0.1 0.8 1 1.1 1.4 0.5 1.3-1.9 3.1-3.7 5.3-3.1 4.3 1 3.2 9.9 3.2 9.9z"/><path class="b" d="m421.2 191.3c0 0 1.9-12.4 7.4-11.9 1.5 0.1 2.5 1.6 3.2 3.3 0.4 1 1.9 0.9 2.2-0.1 1.4-5.1 4.4-12.8 9-12.8 4.7 0 4.9 8.8 4.5 14.2 0 0.8 1 1.2 1.5 0.5 1.2-1.8 3.1-3.6 5.3-3.1 4.3 1 3.1 9.9 3.1 9.9z"/><path class="c" d="m305.6 223.7c0 0-5.7 4.9-13.9 8.1 0 0-4.8 2.9-10.8 6.3q0 0 0 0.1c-7.1 4-12.6 6.7-17.9 8.1-4.4 1.2-8.3 2.7-11.3 4q-0.5 0.2-1 0.5c-2.9 1.3-4.7 2.3-4.7 2.3l-3.7-8.7c0 0 6.7-6.6 10.7-9.9 4.9-4.1 13.7-12.8 24.1-16.5q0 0 0 0 1.3-0.5 2.4-0.7c0 0 8.3-5.9 14.4-9.1 2.1-1 3.8-1.8 5-1.9 0 0 9.8 9 6.7 17.4z"/><path class="d" d="m282.6 222.2c0 0-3.5-3.8-5.5-4.2q0 0 0 0 1.3-0.5 2.4-0.7c0 0 2.8 2.8 3.1 4.9z"/><path class="d" d="m305.6 223.7c0 0-5.7 4.9-13.9 8.1 0 0-4.8 2.9-10.8 6.3 4.2-2.9 10.8-9.3 15.9-13.7 3.5-2.9 1.6-6.7 0.2-10.3-0.6-1.5-2.1-4.1-2.9-5.7 0-0.1-0.1-0.1-0.2-0.2 2.1-1 3.8-1.8 5-1.9 0 0 9.8 9 6.7 17.4z"/><path class="c" d="m250.4 247.5l1.1 10.4c0.1 1.1-0.3 2.2-1.2 2.9l-6 5.6c-0.8 0.6-1.9 0.6-2.5-0.1-0.6-0.6-0.7-1.5-0.2-2.2l4.5-6.6-0.8-2-2.6 4-2.1 3.9-1.1 6.2c-0.2 0.9-1 1.4-1.9 1.3-0.8-0.2-1.3-0.9-1.2-1.7l0.6-7.4 0.8-5.4-2.1 5.6-2.4 9c-0.2 0.6-0.7 1.1-1.3 1.1-0.9 0.2-1.8-0.6-1.7-1.6l0.5-7.9 1.6-5.7-4.8 7.9-2.6 5.6c-0.2 0.7-0.9 1-1.6 0.8-0.7-0.2-1.1-1-0.9-1.7l2-6.6 3.4-6.5-3.3 5.1-0.9 2.1c-0.2 0.4-0.7 0.6-1.1 0.4-0.4-0.2-0.6-0.6-0.5-1l0.5-2.3 2.3-4.7 17.5-11.6c0 0 3-1 8 3.1z"/><path class="d" d="m251.5 250.4c-0.3 0.1-0.5 0.2-0.8 0.4 0 0-0.3-1.4-2.4-3.2 0.1 0 1.7 0.5 3.2 2.8z"/><path class="e" d="m412.7 229.7c-0.4 0.7-1.2 1.1-2 1.5 0.7 10.6 0.4 19.7-1.2 23.8-4.9 12.7-46.8 18.9-56.8 9.7-10.1-9.2-15.6-69.9-2-79.5 10.1-7.2 31.4-8.3 41.5-8.5 4.2 0 8.1 2.5 9.7 6.4 2.5 6.3 4.8 16.3 6.4 26.9 0.6 0 1.3 0.1 1.9 0.4 2.1 0.7 3.5 17.3 2.5 19.3z"/><path class="f" d="m335.8 354.9c0.4 1.5 1.1 3 2.1 4.5 0 0-4.4 1.8-8.5 3.4-3.1 1.3-8.3 2.1-11.6 3.3q-1.2 0.5-2.1 1.1-0.2 0.2-0.4 0.3c-1.8 1.7-11.4 5.8-14.5 6.5q-0.4 0.1-0.7 0.1c-0.9 0-2.2-0.4-2.9-1.6-0.7-1.2-1-3-0.3-5.8 0.7-2.7 3-6 5.3-8.8 2.8-3.3 6.2-6.2 9.9-8.4 3.6-2 8-4.7 8.9-5.7 2.8-3 5.3-6.5 9.2-8.1 1-0.4 2.3-0.5 3.7-0.5 4.1 0.2 9.2 1.8 9.2 1.8 0 0-9.5 8.9-7.3 17.9z"/><path class="e" d="m333.9 335.2c-2 1.4-5 3.8-6.2 6-1.9 3.4-9.3 6.8-12.5 8.9-3.2 2.1-15.6 11.8-16.8 17.1-1.1 4.6 1.1 6.4 2.4 6.8q-0.4 0.1-0.7 0.1c-1.7 0-4.7-1.4-3.2-7.4 0.7-2.7 3-6 5.3-8.8 2.8-3.3 6.2-6.2 9.9-8.4 3.6-2 8-4.7 8.9-5.7 2.8-3 5.3-6.5 9.2-8.1 1-0.4 2.3-0.5 3.7-0.5z"/><path class="g" d="m337.9 359.4c0 0-4.4 1.8-8.5 3.4-3.1 1.3-8.3 2.1-11.6 3.3q-1.2 0.5-2.1 1.1-0.2 0.2-0.4 0.3c-1.8 1.7-11.4 5.8-14.5 6.5q-0.4 0.1-0.7 0.1c-0.9 0-2.2-0.4-2.9-1.6 0 0 6.3-1.4 9.5-3.5 2.1-1.4 5-3.6 7.8-5-0.6-1.3-1.6-2.8-2.9-4.6 0 0 2.2 1.6 4.2 3.9 1.1-0.5 2.1-0.8 3-0.9 3.2-0.3 13.4-3.6 17-7.5 0.4 1.5 1.1 3 2.1 4.5z"/><path class="f" d="m314.2 326.1c-0.1 5 1 9 0.8 10.7-0.3 3.2-5.6 9.4-5.6 9.4-0.4 3.6-3.2 8.6-7 11.3q0 0-0.1 0.1 0 0-0.1 0c-2.2 1.6-4.7 2.2-7.2 1.4q-0.5-0.2-0.9-0.4c-4.8-2.3-6.3-19 0-25.7 6.1-6.5 8.7-19.7 14.8-21.2 6.1-1.5 9.2 1.1 9.2 1.1q-0.2 0.4-0.4 0.8c-2.6 4.2-3.4 8.7-3.5 12.5z"/><path class="e" d="m318.1 312.8q-0.2 0.4-0.4 0.8c-0.6-0.3-6.4-2.3-9.9 0-3.8 2.4-5.9 11.4-7.8 13.9-2 2.4-8.2 11.5-8.3 15-0.2 3.6-1 12.3 2.3 14.8 3.2 2.4 7.1 1.1 8.2 0.3-2.4 1.7-5.3 2.4-8.1 1-4.8-2.3-6.3-19 0-25.7 6.1-6.5 8.7-19.7 14.8-21.2 6.1-1.5 9.2 1.1 9.2 1.1z"/><path class="g" d="m315 336.8c-0.3 2.9-4.8 8.5-5.5 9.3l-0.1 0.1q0 0 0 0c-0.4 3.6-3.2 8.6-7 11.3q0 0-0.1 0.1 0 0-0.1 0c-2.2 1.6-4.7 2.2-7.2 1.4q0.5-0.3 1.5-0.5c4.3-0.9 8-6.9 8.8-10.1 0.3-1 1-2.2 2-3.5-1.5-0.9-3.4-1.8-5-1.8 0 0 2-0.8 5.7 0.9 2.2-2.8 5-5.8 5.3-7.2 0.5-2.1 0.9-10.7 0.9-10.7-0.1 5 1 9 0.8 10.7z"/><path class="c" d="m440.5 154.7l-12.3 6.9-12.5 7c0 0-5-11.4-0.5-18.4 0 0 1-0.6 2.5-1.4 1.2-0.6 2.5-1.3 4-1.9q1.2-0.6 2.4-1c0 0 1.2-4.1 3.3-8.7 1.1-2.5 1.3-4.2 1.2-5.2-0.1-0.9-0.4-1.3-0.4-1.3 0 0 6.4-3.2 10.1-6.4 0 0 7.9 18.1 2.2 30.4z"/><path class="d" d="m430.4 150.8c0 0-5.3 1.4-8.7-3.9q1.2-0.6 2.4-1c0 0 2.4 4.3 6.3 4.9z"/><path class="d" d="m428.2 161.6l-12.5 7c0 0-5-11.4-0.5-18.4 0 0 1-0.6 2.5-1.4 0 0 0.2 9.6 1.5 12 1.3 2.4 5.7 1.6 9 0.8z"/><path class="c" d="m438.3 124.3c-1.5 1.7-8 6.3-9 6.8-0.3 0.1-0.7-0.1-1.2-0.4-0.4 0-3.3 0.1-4.9-0.6-0.9-0.4-0.9-1.6-0.7-2.9-2.1-0.5-6.2-3.8-6.1-6.8 0-3.3 3.6-3.6 3.6-3.6 0.1-3.8 3.7-3.2 3.7-3.2 0.2-1.7 3.2-2.4 3.2-2.4 0.3-1.4 2.3-1.7 3.5-1.1 1.1 0.5 8.1 8.6 8.4 10.1 0.3 1.5-0.5 4.1-0.5 4.1z"/><path class="d" d="m427.9 125.3c0.5 1.9-1.1 2.2-1.1 2.2 0.3-0.3 0.3-1.1 0.2-1.8 0 0 0-0.5-0.2-1q0 0 0 0c-0.2-0.7-0.6-1.4-1.4-1.8-1.4-0.6-2.1-0.2-2.1-0.2l-2.8-3.8c1.5 0.8 3.4 3 3.4 3 2.6-0.1 3.5 1.7 3.9 2.8 0.5-0.1 1-0.3 1.2-1 0.4-1.4-0.5-2.7-0.5-2.7l-4-5.3c0 0 5.4 5.1 5.6 7 0.1 2.7-2.2 2.6-2.2 2.6z"/><path class="d" d="m428.5 114c0 0 3.5 4.3 4 5.4 0.5 1.3-0.3 2.6-1.2 2.8-0.9 0.3-1.5-0.2-1.5-0.2l0.1 1.3c0 0 3.5 0.6 3.5-2.8 0-1.7-4.9-6.5-4.9-6.5z"/><path class="d" d="m433.2 119.7c0 0 0.8 0.8 1.9 0.5 1-0.4 1.3-1.1 1-1.7 0 0 0.6 0.6 0.1 1.5-0.7 1.2-2.5 1-3 0.9z"/><path class="d" d="m432.5 130.1c0 0-1.1 2.1-3.9 1.9-0.1-0.9-0.4-1.3-0.4-1.3 0 0 2.3 0.2 4.3-0.6z"/><path class="h" d="m391.5 291.2c0 0-3.7-8-3-12.5 0.7-4.5 6.8 2.6 7.6 4.5 0.8 1.9-0.4 7.2-4.6 8z"/><path class="e" d="m345.5 337.6c-3.6 1.5-7.4 2.4-10.5 2.5 3.3-2.4 7.1-3.3 7.1-3.3 1.1 0.2 2.2 0.4 3.4 0.8z"/><path fill-rule="evenodd" class="i" d="m359.6 312.8c-0.7 3 0.1 6.9-2.2 13.8-1.5 4.8-6.5 8.6-11.9 11 4.8 1.4 10 2.5 10 2.5 8.5-0.2 24.5 3.2 24.5 3.2-15-14-20.4-30.5-20.4-30.5z"/><path fill-rule="evenodd" class="e" d="m400.4 375.8c-10.7-0.5-43.1-13.8-47.7-15.7-4.7-1.9-4.6-0.4-10.2-0.1-5.6 0.4-6.3-1.1-6.3-1.1 0 0-7.1-5.3-5.6-12.5 0.6-2.8 2.4-4.8 4.4-6.3q-1.7 0.1-3.1-0.1c-7.2-1.3-16.4-1.3-16.4-1.3-4.3 0.6-10.9-0.2-13.5-7.8-0.8-2.3-0.7-4.5-0.3-6.4 0.9-3.6 3.6-6.5 7-8 2.8-1.1 6.8-2.8 9.4-3.7 4.3-1.4 6.3-1.6 6.3-1.6 1.5-2.3 0-13.8-2-17.4-4.8-8.9-2.8-17.3-2.8-17.3 15.6-23.7 50.5-5.7 50.5-5.7 2.3 0.7 1.5 0.4 3.4 0.9l14.8 5.4c3.6 27.6 27.2 64 27.8 78.3 0.7 14.3-5 20.9-15.7 20.4zm-20.4-32.5c-15-14-20.4-30.5-20.4-30.5-0.7 3 0.1 6.9-2.2 13.8-1.5 4.8-6.5 8.6-11.9 11 4.8 1.4 10 2.5 10 2.5 8.5-0.2 24.5 3.2 24.5 3.2z"/><path class="j" d="m319.4 316.2q-0.8 0.2-1.5 0.4l0.1 0.7q0.8-0.2 1.5-0.3 0.8-0.2 1.6-0.3l-0.2-0.8q-0.7 0.2-1.5 0.3z"/><path class="j" d="m304 321.5l0.3 0.7q1.4-0.8 2.7-1.5l-0.3-0.7q-1.4 0.8-2.7 1.5z"/><path class="j" d="m313.1 317.7l0.1 0.7q1.4-0.3 3.1-0.7l-0.2-0.8q-1.7 0.4-3 0.8z"/><path class="j" d="m329.2 305.4h0.7q-0.1-1.5-0.3-3.1l-0.7 0.1q0.2 1.5 0.3 3z"/><path class="j" d="m323 274.2h-0.8q-0.1 1.6-0.1 3.1h0.8q0-1.5 0.1-3.1z"/><path class="j" d="m328.6 300.6l0.8-0.1q-0.3-1.6-0.7-3.1l-0.7 0.2q0.3 1.5 0.6 3z"/><path class="j" d="m308.3 319.2l0.3 0.7q1.3-0.5 2.9-1l-0.2-0.7q-1.7 0.5-3 1z"/><path class="j" d="m328.3 313.4q-0.3 0.4-1 0.7l0.3 0.7q0.9-0.4 1.3-1 0.4-0.5 0.7-1.6l-0.8-0.2c-0.1 0.8-0.3 1.2-0.5 1.4z"/><path class="j" d="m328.1 295.7q-0.5-1.6-1.2-2.9l-0.7 0.3q0.7 1.3 1.2 2.8z"/><path class="j" d="m322.9 279.1h-0.8q0 1.7 0.2 3.1h0.7q-0.1-1.5-0.1-3.1z"/><path class="j" d="m330 307.2h-0.8q0 0.2 0 0.4 0 1.5-0.1 2.7l0.8 0.1q0.1-1.3 0.1-2.8 0-0.2 0-0.4z"/><path class="j" d="m323.9 286.9q-0.4-1.3-0.7-3l-0.7 0.2q0.2 1.6 0.6 3z"/><path class="j" d="m324.4 288.6l-0.7 0.3q0.6 1.5 1.4 2.5 0.1 0.1 0.2 0.2l0.6-0.4q-0.1-0.1-0.2-0.3-0.7-0.9-1.3-2.3z"/><path class="j" d="m322.7 315.5l0.1 0.8c1.3-0.3 2.3-0.6 3.1-0.8l-0.3-0.7c-0.7 0.2-1.7 0.4-2.9 0.7z"/><path class="j" d="m361.7 311.2c-0.5-0.8-0.8-1.3-0.8-1.3l0.6-0.4c0 0 0.3 0.5 0.8 1.3z"/><path class="j" d="m347.3 341q1.2 0.3 2.9 0.8l0.2-0.8q-1.7-0.4-2.9-0.7z"/><path class="j" d="m342.8 339.6l-0.1 0.7q1.1 0.2 2 0.2 0.3 0 0.9 0.2l0.2-0.8q-0.7-0.1-1.1-0.1-0.8-0.1-1.9-0.2z"/><path class="j" d="m351.9 342.2q1.4 0.4 2.9 0.8l0.2-0.7q-1.5-0.4-2.9-0.8z"/><path class="j" d="m356.5 343.5l0.2-0.7 2.9 0.8-0.2 0.7z"/><path class="j" d="m361.1 344.8q1.5 0.4 2.9 0.8l0.2-0.7q-1.4-0.4-2.9-0.8z"/><path class="j" d="m373 326.5q-0.9-1.2-1.7-2.4l-0.6 0.4q0.8 1.2 1.7 2.5z"/><path class="j" d="m387.6 345.4q-0.3-1.2-1.6-2.7l-0.6 0.5q1.2 1.4 1.5 2.4z"/><path class="j" d="m375.8 330.4q-0.9-1.2-1.8-2.4l-0.6 0.4q0.9 1.2 1.8 2.4z"/><path class="j" d="m338 339.3v0.2q1.6 0.3 2.9 0.6l0.2-0.8q-0.7-0.1-1.4-0.2-0.9 0.1-1.7 0.2z"/><path class="j" d="m362.6 312.7q0.8 1.1 1.7 2.5l0.6-0.4q-0.9-1.4-1.6-2.5z"/><path class="j" d="m380.8 348.6q-0.4 0-1 0l-0.1 0.7q0.5 0.1 1 0.1 0 0 0.1 0 1.1-0.1 2-0.2l-0.1-0.7q-0.9 0.1-1.9 0.1z"/><path class="j" d="m384.4 341q-0.7-0.7-1.7-1.8l-0.5 0.5q0.9 1.1 1.7 1.9 0.2 0.1 0.4 0.3l0.5-0.5q-0.2-0.2-0.4-0.4z"/><path class="j" d="m381.6 337.9q-0.9-1-1.9-2.3l-0.6 0.4q1 1.3 1.9 2.4z"/><path class="j" d="m376.2 332.3q1 1.2 1.8 2.4l0.6-0.5q-0.8-1.1-1.8-2.4z"/><path class="j" d="m384.4 348.2l0.1 0.8q2.1-0.5 2.8-1.6l-0.6-0.4q-0.6 0.8-2.3 1.2z"/><path class="j" d="m365.7 346.1q1.5 0.4 2.9 0.7l0.2-0.7q-1.4-0.4-2.9-0.8z"/><path class="j" d="m374.9 348.4q1.8 0.4 3 0.7l0.1-0.8q-1.2-0.2-2.9-0.6z"/><path class="j" d="m368 320.6q0.8 1.2 1.7 2.5l0.6-0.5q-0.9-1.2-1.7-2.4z"/><path class="j" d="m367.6 318.7q-0.9-1.3-1.7-2.5l-0.6 0.4q0.8 1.2 1.7 2.5z"/><path class="j" d="m370.3 347.3q1.6 0.4 2.9 0.7l0.2-0.7q-1.3-0.3-2.9-0.7z"/><path class="e" d="m345.5 337.6c-3.6 1.5-7.4 2.4-10.5 2.5 3.3-2.4 7.1-3.3 7.1-3.3 1.1 0.2 2.2 0.4 3.4 0.8z"/><path class="k" d="m416.9 170.4c0 4.8-0.3 8.2-0.3 8.2q-1.3 0.5-2.8 1.3c-6.5 3.3-14.6 10.1-16.5 17.2-0.8 2.7-1.2 8.5-1.3 15-0.1 5.3-0.1 11 0 16.1q0 0.4 0 0.8c0.1 6.4 0.3 11.6 0.3 13.1 0 4.1-0.9 16.3-1 21.6-0.2 5.2 1.3 10.8 1.9 19.7 0.7 8.9-5.7 7.8-5.7 7.8 6.2-2.7 3-10.1-1-11.8q-0.9-0.3-2.1-0.7 0 0 0 0c-9.5-3.4-31.7-9.1-42.9-10.8-16.8-2.4-25.9 8.6-25.9 8.6 0 0 3.3-18.3 6.1-21.9 2.8-3.6 4.4-15.4 5.6-20.4q0.2-1 0.3-2.4c0.1-4.4-0.8-11.4-1.4-15-0.2-1.4-0.4-2.3-0.4-2.3-1.7 2.8-12.7 8.5-18.4 11.4-2 1-3.3 1.6-3.3 1.6l-4.7-7.1-9.3-14.1c0 0 0.6-0.6 2.6-2.1 1.3-1.1 3.4-2.7 6.3-4.8 7.1-5.3 15.5-14.8 18.6-16.3 3.1-1.5 3.6-1.3 7.7-5.3 2.9-2.8 13.4-6.1 19.4-7.9 2.5-0.7 4.3-1.2 4.3-1.2 8 2.5 13.9-0.9 13.9-0.9 0 0 2.2-1.5 5.1-3.3 4.9-2.9 11.7-6.7 14.5-6.9 3.7-0.3 19.2-4.7 25.7-6.6 1.8-0.5 3-0.8 3-0.8 1.5 5.8 1.8 14.1 1.7 20.2z"/><path class="e" d="m359.4 176.2c-7.1 0.4-10.1-4.9-10.7-6.3 2.5-0.7 4.3-1.2 4.3-1.2 8 2.5 13.9-0.9 13.9-0.9 0 0 2.2-1.5 5.1-3.3 0.9 7.3-4.6 11.3-12.6 11.7z"/><path class="e" d="m311.4 225.9c-2 1-3.3 1.6-3.3 1.6l-14-21.2c0 0 0.6-0.6 2.6-2.1z"/><path class="e" d="m416.6 178.6q-1.3 0.5-2.8 1.3c1.3-12-0.6-24-1.6-28.9 1.8-0.5 3-0.8 3-0.8 2.8 10.3 1.4 28.4 1.4 28.4z"/><path class="l" d="m396 228.2c-11.5-5-39.6-14.1-64.4 3.6 0.1-4.4-0.8-11.4-1.4-15 3.8-2.4 21.8-13.1 39.1-12.6 11.9 0.4 21.2 4.6 26.7 7.9-0.1 5.3-0.1 11 0 16.1z"/><path class="e" d="m340.4 129.1c0 0-4.6-1-5.2 4.3-0.4 4.6 5.3 6.3 5.3 6.3 0 0 1.9-7.7-0.1-10.6z"/><path class="e" d="m342.6 136.8c0 0-4.5-1-5.1 4.3-0.5 4.6 5.3 6.3 5.3 6.3 0 0 1.8-7.8-0.2-10.6z"/><path class="e" d="m339.6 130.2c0 0-7.3-2.8-4.8-10.8 2.5-8 12-4.8 12-4.8 0 0 0.3-5.6 6.6-5.9 6.2-0.3 8.5 4.7 8.5 4.7 0 0 4.2-4.2 9.3-2.9 5.2 1.3 6.9 7.5 5.3 10.4 0 0 3.3-0.5 5.8 3.3 2.5 3.8 3.1 9.4 0 11.5 0 0 3.7 4 1.7 9.5-2 5.4-7.4 5.3-7.4 5.3 0 0 1 7.1-5.8 8.8-6.9 1.7-6.3-4.4-6.3-4.4 0 0-12.1-27.9-24.9-24.7z"/><path class="c" d="m368.3 162.1l1 4.9c0.3 1.2-0.2 2.5-1.2 3.3-8.9 6.4-15.6 2-17-0.2 1.1-1 20-19 20.3-29.1 0 0 2.2 12.6-3.1 21.1z"/><path class="c" d="m340.1 143.8q-0.5 2.1-0.4 4.4 0.2 1.9 0.9 3.7l3.1 8c1.1 3 4.1 4.9 7.3 4.8 3.6-0.2 8.5-1 12.7-3.8 8-5.4 8.1-17.6 8.1-17.6 0 0-0.7-12.4-11-17.1-10.3-4.7-20.8 0.8-20.8 0.8l-1.1 8.7q-0.2 0.7-0.2 1.5c0 1.6 0.2 3.2 0.8 4.8z"/><path class="e" d="m348.5 134.6c0 0 5.8-5.6 9.8-0.5l-0.8 1.3c0 0-4-3.6-8.6 0.8z"/><path class="d" d="m340.1 143.8q-0.5 2.1-0.4 4.4c1.3-0.9 3.8-1.6 8.8-1 0 0-2.7-2.2-5.4-2.2-0.7 0-1.2-0.7-1-1.4l1.5-4.6c0 0-0.5-0.9-1.7-1.3-0.7-0.2-2.1-0.4-3.2-0.5 0 1.6 0.2 3.2 0.8 4.8z"/><path class="e" d="m339 135.8c1.9 0.1 3.5 0.7 3.5 0.7l0.2 1.5c-1.4-0.5-2.6-0.7-3.7-0.6-0.5 0-1-0.4-0.9-0.9q0 0 0 0c0-0.4 0.4-0.8 0.9-0.7z"/><path class="m" d="m342.4 150.9l13.8-1.3c0 0-1.6 7.5-8.9 7.3-5.8-0.2-4.9-6-4.9-6z"/><path class="d" d="m351.8 164.4c0 0 8.5-1 13.1-12.9 0 0 2.1 4.4-0.4 10.7-2.5 6.2-13.4 7.9-13.4 7.9z"/><path class="c" d="m368.2 141.3c0 0 2.6-4.9 6.4-2.7 3.8 2.2 1.7 13.5-3.8 11.4-5.5-2.2-2.6-8.7-2.6-8.7z"/><path class="e" d="m350.2 139c0 0 0.8-2.5 3-2.5 3.2 0 3.8 2.7 3.8 2.7 0 0-3.1-4.3-6.8-0.2z"/><path class="e" d="m343 140.7c0 0-2.2-2.7-3.5 0.5 0 0 1.4-2 3.5-0.5z"/><path class="e" d="m339.6 130.2c0 0 3.7 1 6.9-1.2 3.1-2.2 2.4-4.1 2.4-4.1 0 0 1.3 3.2 5.5 2.9 4.3-0.4 4.9-1.6 4.9-1.6 0 0-0.2 4.8 3.3 5.5 3.4 0.8 5.5-2.1 5.5-2.1 0 0-15.4-13.6-20.7-10-5.4 3.7-9.9 5.6-7.8 10.6z"/><path class="e" d="m366.3 130.3c0 0-2.1 4.1 1.5 6.4 0 0-0.1 3.5-1.3 6.4h2.7c0 0 2-3.5 1.8-6.5-0.2-3-0.2-7.5-4.7-6.3z"/><path class="d" d="m438.3 124.3c0 0-0.6 1.6-1.6 2.2 0 0 1.6 0 2.1-0.9z"/><path class="k" d="m302.3 357.6q0.1-0.1 0.1-0.1 0 0-0.1 0.1z"/><path class="g" d="m388.4 278.7c-9.5-3.4-31.7-9.1-42.9-10.8-16.8-2.4-25.9 8.6-25.9 8.6 0 0 3.3-18.3 6.1-21.9 2.8-3.6 4.4-15.4 5.6-20.4q0.2-1 0.3-2.4c0.1-4.4-0.8-11.4-1.4-15-0.2-1.4-0.4-2.3-0.4-2.3-1.7 2.8-12.7 8.5-18.4 11.4-2 1-3.3 1.6-3.3 1.6l-4.7-7.1-0.6-3.1c0 0 12.2-6.7 29.1-15.8 0 0 7.7 9.6 7.6 20.7-0.2 19.8-3.1 33.2 9.2 37.8 11.8 4.5 38.1 17.8 39.7 18.7z"/><path class="g" d="m416.9 170.4c0 4.8-0.3 8.2-0.3 8.2q-1.3 0.5-2.8 1.3c-6.5 3.3-14.6 10.1-16.5 17.2-0.8 2.7-1.2 8.5-1.3 15-0.1 5.3-0.1 11 0 16.1q0 0.4 0 0.8c0 0-4.4-29.6-1.9-38.4 2.5-8.6 22.4-19.9 22.8-20.2z"/><path class="e" d="m335.2 177.5c-3.6 21.4-2.9 46.7-2.9 46.7 1.3 6.7-1.5 12.3-1.5 12.3-13.7-14.8-4.3-59 0.8-67.9 6.3-11 15.5 1.8 15.5 1.8l-4.7 1.5c0 0-1.7-2.3-3.7-1.8-2 0.5-3.5 7.4-3.5 7.4z"/><path class="e" d="m374 163.4c0 0 1.4-10.8 9.3-11.1 12.5-0.4 15.6 32.4 16.6 50.2 1 17.7-3.9 21.3-3.9 21.3l-0.2-10.1c0 0-6.4-43.7-9.6-51.4-3.5-8.4-6.6-4.3-9.7 0l-2.8 1.3"/><path class="c" d="m100.8 152.2c-20.2-5.3-36-24.3-40.2-28.9q-0.6-0.6-1.2-2 0 0 0 0c-4-8.3-10.5-35.6-12-41.8q-0.1-0.7-0.2-1 0-0.3 0-0.3l11.5-5c0 0 0.9 11 6.4 19.9 5.6 8.9 10.7 23 10.7 23 10.8 5.3 22.4 15.2 22.4 15.2 6 12.7 2.6 20.9 2.6 20.9z"/><path class="d" d="m100.8 152.2c-20.2-5.3-36-24.3-40.2-28.9q-0.6-0.6-1.2-2c0.2 0.2 15.2 13 20.8 16.3 5.6 3.2 12 6.1 15.2 3.9 3.1-2.2 4-6.4 2.8-10.2 6 12.7 2.6 20.9 2.6 20.9z"/><path class="c" d="m47.9 78.8c2.2-0.1 9.9-2.1 10.9-2.5 0.3-0.2 0.4-0.6 0.5-1.2 0.3-0.3 2.2-2.5 2.7-4.2 0.3-0.9-0.7-1.7-1.8-2.3 0.9-2 1.1-7.2-1.3-9.1-2.6-2.1-5.1 0.5-5.1 0.5-2.9-2.4-4.8 0.8-4.8 0.8-1.4-1-3.9 0.9-3.9 0.9-1.3-0.7-2.7 0.6-3.1 1.9-0.3 1.3 1.4 11.8 2.4 13 0.9 1.2 3.5 2.2 3.5 2.2z"/><path class="d" d="m55.3 71.5c1.1 1.6 2.3 0.5 2.3 0.5-0.4 0.1-1-0.4-1.4-0.9 0 0-0.4-0.3-0.7-0.8q0-0.1 0-0.1c-0.4-0.5-0.7-1.3-0.5-2.1 0.5-1.5 1.2-1.8 1.2-1.8l-1.1-4.7c-0.3 1.8 0.1 4.6 0.1 4.6-1.7 1.9-0.9 3.9-0.3 4.8-0.4 0.3-0.9 0.6-1.6 0.3-1.3-0.6-1.7-2.1-1.7-2.1l-1.5-6.5c0 0 0.4 7.4 1.8 8.8 1.9 1.8 3.4 0 3.4 0z"/><path class="d" d="m46.3 64.7c0 0 0.9 5.4 1.5 6.5 0.7 1.2 2.1 1.4 2.9 0.9 0.8-0.6 0.8-1.3 0.8-1.3l1 0.9c0 0-1.9 3.1-4.5 0.9-1.3-1.1-1.7-7.9-1.7-7.9z"/><path class="d" d="m47.6 71.9c0 0 0.1 1.2-0.9 1.8-0.9 0.6-1.6 0.3-1.9-0.3 0 0 0 0.9 1.1 1 1.4 0.3 2.3-1.2 2.6-1.7z"/><path class="d" d="m49.9 78.8c0 0-1 0.8-2.5 0.7q-0.1-0.7-0.2-1c0 0 1.2 0.4 2.7 0.3z"/><path class="d" d="m59 76c0 0-1.2 1.2-2.2 1.5 0 0 1.4 0.1 2.4-0.6z"/><path class="d" d="m75.8 116.1c0 0-3.9 3.2-6.1 3.6 0 0 4.4 1.4 8.1-2.5z"/><path class="e" d="m88.1 213.8c0.4 0.7 1.3 1 2.2 1.2 0.6 10.7 2 19.7 4.1 23.6 6.5 11.9 48.9 12.7 57.7 2.3 8.8-10.4 6.5-71.3-8.2-79.1-11-5.8-32.2-4.2-42.3-3.1-4.2 0.5-7.7 3.5-8.7 7.6-1.8 6.6-2.7 16.7-3 27.5-0.6 0.1-1.2 0.3-1.8 0.6-2 1-1.2 17.6 0 19.4z"/><path class="c" d="m246.8 154.7c0 0-3.2 12-8.3 25.3q-1.2 3-2.5 6c-3.4 8.3-7.6 16.5-12 22.1-2.4 2.9-4.8 5.1-7.3 6.2 0 0-7.2 1.1-12.2-2-5.1-3-24.7-12.7-27.1-16.9 0 0 7.6-10.7 14.7-11.7 0 0 2.7 1.4 6.5 3.6 4 2.3 9.4 5.7 14.1 9.2q0.7 0.5 1.3 1c0 0 0.4-0.7 1.1-1.9 1.7-3.2 5.3-9.9 9.7-16.9q1.4-2.2 2.9-4.5 0.3-0.5 0.7-1c7.8-11.6 8.8-20 8.8-20 0 0 7.5-0.7 9.6 1.5z"/><path class="d" d="m238.5 180q-1.2 3-2.5 6l-11.2-7.3q1.4-2.2 2.9-4.5z"/><path class="d" d="m224 208.1c-2.4 2.9-4.8 5.1-7.3 6.2 0 0-7.2 1.1-12.2-2-5.1-3-24.7-12.7-27.1-16.9 0 0 7.6-10.7 14.7-11.7 0 0 2.7 1.4 6.5 3.6-0.5 1.5-2.2 6.9-5.3 9.5-3.7 3.1 4.8 10.1 12.1 13.3 7.3 3.1 12.3 3 18.6-2z"/><path class="d" d="m213.7 205.7c0.9-3.5-1-9.2-1-9.2q0.7 0.5 1.3 1c0 0 0.4-0.7 1.1-1.9 0.7 7.3-1.4 10.1-1.4 10.1z"/><path class="f" d="m180.2 383.9c-6.7-3.9-9.1-7.7-13.1-14.4-2.4-4-4.6-7.3-6-9.4-1-1.4-1.1-3.3-0.3-4.8q0.1-0.2 0.2-0.3c1.6-3 4.2-7.2 6.5-7.3l2.5 1.4 8.9 4.8c0 0 3.8 8.8 3.7 12.7-0.2 3.4 6.3 11.2 8.3 15.6q0.3 0.6 0.4 1.1 0.1 0.3 0.1 0.6c0.5 3.7-4.5 3.9-11.2 0z"/><path class="e" d="m180.2 383.9c-6.7-3.9-9.1-7.7-13.1-14.4-2.4-4-4.6-7.3-6-9.4-1-1.4-1.1-3.3-0.3-4.8q0.1-0.2 0.2-0.3c0.4 1.5 1.5 5 3.7 7.7 3 3.5 7.5 11.4 8.5 12.9 1.1 1.6 8.6 8 13.3 9 3.8 0.8 4.5-0.1 4.8-1.3q0.1 0.3 0.1 0.6c0.5 3.7-4.5 3.9-11.2 0z"/><path class="g" d="m180.2 383.9c-6.7-3.9-9.1-7.7-13.1-14.4-2.4-4-4.6-7.3-6-9.4-1-1.4-1.1-3.3-0.3-4.8q0.1-0.2 0.2-0.3c1.6-3 4.2-7.2 6.5-7.3l2.5 1.4c0 0-5 4.4-3.4 9.4 1.6 4.9 7 12.4 9.7 15.7 2.7 3.1 8.7 8.7 14.6 8q0.3 0.6 0.4 1.1 0.1 0.3 0.1 0.6c0.5 3.7-4.5 3.9-11.2 0z"/><path class="f" d="m177.8 406.8c-0.2 4.4-3.3 8.5-10.3 7.3-7.9-1.3-10.1-7.9-12-11.9-1.8-4-6.2-18-8-23.5-1-3-0.7-6.3-0.2-8.7 0.4-2 0.9-3.4 0.9-3.4l2.8 0.4 16.1 2.5c0 0 3 6.4 3.7 13.6 0.6 6.1 4.7 14.2 6.3 19.5q0 0 0 0 0.4 1.4 0.6 2.4 0.1 0.9 0.1 1.8z"/><path class="g" d="m177.8 406.8c-0.2 4.4-3.3 8.5-10.3 7.3-7.9-1.3-10.1-7.9-12-11.9-1.8-4-6.2-18-8-23.5-1-3-0.7-6.3-0.2-8.7 0.4-2 0.9-3.4 0.9-3.4l2.8 0.4c-0.2 2.8 1 10.7 3.2 15 2.8 5.3 4.8 16.9 9.6 22 4.9 5.2 13.5 6.2 13.3-1.4q0.4 1.4 0.6 2.4 0.1 0.9 0.1 1.8z"/><path class="e" d="m177.8 406.8c-0.2 4.4-3.3 8.5-10.3 7.3-7.9-1.3-10.1-7.9-12-11.9-1.8-4-6.2-18-8-23.5-1-3-0.7-6.3-0.2-8.7 0.4 2.5 2.5 10.4 5 16.7 4 10.3 7.2 19.4 10 22.4 2.8 3 13.9 5 15.5-2.3z"/><path class="n" d="m95.4 150.4l6.3 2c0 0-1 4.5-2.8 4.5-1.9 0-4-1-3.5-6.5z"/><path fill-rule="evenodd" class="i" d="m180.2 310.3c1.2 3 0.1 6.2-1.3 11.3 5.4-7.8 14.4-20.2 14.4-20.2l-26.2-8.1c0 0 11.8 13.6 13.1 16.9z"/><path fill-rule="evenodd" class="e" d="m201.7 327.4c-5.6 5.3-13.3 14.9-15.5 15.6-2.1 0.6-5.7 10.5-7.3 10.9-1.3 0.2-5.1-0.9-7.5-2.4-0.9 3.3-1.5 5.9-1.6 6.7-0.5 3.2 0.8 6.9 0.3 12.6-0.5 5.7-7.7 8.1-14.2 5.9-6.6-2.2-8.6-12.6-8.6-14.9 0-2.4 1.5-6.2 0.4-10.1-1.2-3.9 1.1-9.2 1.1-9.2-1.5-6.4 2.2-21.3 2.2-21.3-2.7-0.2-2.8-3.9-2.8-3.9-2.2 0.3-24.7-23.2-31.9-29.8-7.2-6.6-7.2-24.8-7.2-24.8q1.4-2.5 3.3-4.5 0.3-0.2 0.5-0.4c14.4-13.9 49.4-10 49.4-10 10.2 7.6 14.1 6.6 34.5 18.8 16.1 9.6 24.1 17.9 26.8 21 0.8 1 1.4 2.1 1.7 3.3 3.9 14.8-18.3 31.3-23.6 36.5zm-21.5-17.1c1.2 3 0.1 6.2-1.3 11.3 5.4-7.8 14.4-20.2 14.4-20.2l-26.2-8.1c0 0 11.8 13.6 13.1 17z"/><path class="j" d="m113.6 259.3l-0.9 0.2q-0.2-0.8-0.3-1.3 0.3-0.2 0.5-0.4l0.5-0.1c0 0 0.1 0.6 0.2 1.6z"/><path class="j" d="m114 261.6l-1 0.1q0.3 1.7 0.7 3.3l1-0.2q-0.4-1.6-0.7-3.2zm1.1 5.4l-1 0.2q0.4 1.7 0.8 3.2l0.9-0.2q-0.3-1.5-0.7-3.2zm1.3 5.4l-1 0.3q0.5 1.7 0.9 3.1l1-0.3q-0.5-1.4-0.9-3.1zm1.6 5.3l-0.9 0.3q0.6 1.8 1.3 3.1l0.9-0.5q-0.6-1.2-1.3-2.9zm2.5 4.7l-0.7 0.7q0.7 0.8 2.3 2.3l0.7-0.7q-1.6-1.5-2.3-2.3zm3.9 3.9l-0.7 0.7q1.1 1.1 2.4 2.3l0.7-0.7q-1.3-1.2-2.4-2.3zm4 3.9l-0.7 0.7q1.2 1.1 2.4 2.3l0.7-0.7q-1.2-1.2-2.4-2.3zm4.1 3.8l-0.7 0.8q1.1 1.1 2.4 2.2l0.6-0.7q-1.2-1.1-2.3-2.3zm4 3.9l-0.7 0.7q1.2 1.1 2.4 2.3l0.7-0.8q-1.2-1.1-2.4-2.2zm4.1 3.8l-0.7 0.7q1.2 1.2 2.4 2.2l0.7-0.7q-1.2-1.1-2.4-2.2zm4.1 3.7l-0.7 0.8q1.3 1.2 2.4 2.2l0.7-0.8q-1.1-1-2.4-2.2zm4.1 3.7l-0.6 0.8q1.5 1.3 2.5 2.1l0.6-0.7q-1-0.9-2.5-2.2zm4.3 3.4l-0.4 0.9c0.7 0.3 1.2 1 1.4 2.3l1-0.2c-0.2-1.1-0.7-2.4-2-3zm2.3 5.3l-1 0.1c0.2 1 0.3 2.2 0.6 3.3l1-0.3c-0.3-1-0.4-2.2-0.6-3.1zm-0.2 5.5q-0.1 1.2-0.5 3.2l1 0.2q0.4-2.1 0.5-3.4zm-0.9 5.5q-0.3 1.2-0.6 2.5l-0.1 0.7 1 0.2 0.1-0.7q0.3-1.3 0.6-2.5zm-1.2 5.4c-0.2 1.3-0.4 2.3-0.6 3.3l1 0.1c0.2-0.9 0.4-1.9 0.6-3.2zm0.1 5.7l-1-0.1q-0.2 1.6-0.2 2.9 0 0.2 0 0.4h1q0-0.2 0-0.4 0-1.2 0.2-2.8zm-0.1 5.4l-1 0.1q0 0.8 0 1.7 0 0.7 0 1.5l1 0.1q0-0.8 0-1.6 0-0.9 0-1.8zm-1.1 5.6q0 0.9-0.1 1.7 0 0.8-0.1 1.6h1q0.1-0.7 0.1-1.5 0.1-0.9 0.1-1.8zm0.8 8.4q-0.1-0.8-0.1-1.7 0-0.5 0-1.1h-1q0 0.6 0 1.1 0 0.9 0 1.7 0.1 0.3 0.1 0.5h1q0-0.3 0-0.5zm-1.2 2.7q-0.1 1.5-0.4 3.2l0.9 0.2q0.4-1.8 0.5-3.3zm-0.9 5.5q-0.3 1.5-0.7 3.2l0.9 0.2q0.5-1.7 0.8-3.2z"/><path class="j" d="m163.2 286.4c0 0 1.1 0.4 3.1 1l0.3-0.9c-1.9-0.7-3.1-1.1-3.1-1.1z"/><path class="j" d="m171.9 288.3q-1.7-0.6-3.1-1.1l-0.4 1q1.5 0.5 3.1 1z"/><path class="j" d="m178.2 328.4l0.8 0.6 1.9-2.7-0.8-0.6z"/><path class="j" d="m175 332.9l1.9-2.6 0.8 0.5-1.9 2.7z"/><path class="j" d="m173.2 335.4q0.1 0.8 0.1 1.7l1.2-1.7-0.8-0.6z"/><path class="j" d="m177.1 290.1q-1.6-0.6-3.1-1.1l-0.3 1q1.5 0.5 3.1 1z"/><path class="j" d="m192.9 295.5q-1.5-0.5-3.1-1.1l-0.4 1q1.7 0.6 3.1 1.1z"/><path class="j" d="m182.4 291.9q-1.6-0.6-3.1-1.1l-0.4 0.9q1.6 0.6 3.1 1.1z"/><path class="j" d="m191.6 310.7l0.8 0.7c0.6-0.8 1.4-1.6 2.2-2.5l-0.8-0.6c-0.7 0.8-1.5 1.7-2.2 2.4z"/><path class="j" d="m195.3 306.6l0.7 0.6c0.9-1 1.5-1.8 2.1-2.6l-0.8-0.6q-0.8 1.1-2 2.6z"/><path class="j" d="m198.1 297.5q-1.1-0.4-3.1-1.2l-0.4 1q2 0.7 3.1 1.1z"/><path class="j" d="m200.1 299.1l-1 0.4q0.1 0.2 0.1 0.4 0 0.9-0.7 2.3l0.9 0.4q0.8-1.5 0.8-2.7 0-0.4-0.1-0.8z"/><path class="j" d="m181.4 323.9l0.8 0.5 1.9-2.6-0.8-0.6z"/><path class="j" d="m187.9 314.9l0.8 0.6c0.5-0.7 1.2-1.4 2.1-2.4l-0.7-0.7c-0.9 1-1.6 1.8-2.2 2.5z"/><path class="j" d="m186.2 317.1l-1.6 2.2 0.8 0.6 1.6-2.3q0.1-0.2 0.3-0.4l-0.8-0.6q-0.2 0.3-0.3 0.5z"/><path class="j" d="m184.2 293.6q1.6 0.5 3.1 1l0.3-0.9q-1.5-0.5-3.1-1.1z"/><path class="o" d="m196.8 186.2c-1.2 5.3-6.1 10.1-10.1 13.1q0 0 0 0c-2.8 2.2-5.2 3.6-5.2 3.6l-2.3-2.1-7.3-6.2c0 0 0 0-3.5 7.2-3.5 7.2-2.5 25.7-2.9 31-0.4 4.6 6.7 15.4 8.1 19q0.3 0.9 0.2 1.2c-0.6 1.5-18.1 3.7-29.5 0-11.3-3.8-34.4 10-35.2 9.7-0.7-0.2-1.4-33.9-4.9-48.9-3.5-14.9 2.3-54.2 2.3-54.2l-4.7-1.5-2.1-0.7c-6.2 0.3-4.3-7-4.3-7 0 0 0.2 7.4 4 5.5 1.7-0.9 1.6-5.9 1-11.2-0.7-6.4-2.2-13.3-2.2-13.4 0 0 1.2 0.3 3 0.8 5.9 1.7 19.1 5.6 24.1 8.6 1.5 0.9 5.2 3.5 8 5.6 2 1.5 3.7 2.7 3.7 2.7 9.8 5.4 13 5 21.1 7.4q0.5 0.2 1 0.4c9.8 2.9 21 6.3 25.2 13.3 3.2 5.4 8.6 11.7 11.1 14.6 0.9 0.9 1.4 1.5 1.4 1.5z"/><path class="e" d="m101.8 158.1l-2.1-0.7c-6.2 0.3-4.3-7-4.3-7 0 0 0.2 7.4 4 5.5 1.7-0.9 1.6-5.9 1-11.2-0.7-6.4-2.2-13.3-2.2-13.4 0 0 1.2 0.3 3 0.8 1.5 6.1 4.1 19.4 0.6 26z"/><path class="e" d="m196.8 186.2c-1.2 5.3-6.1 10.1-10.1 13.1q0 0 0 0c-2.8 2.2-5.2 3.6-5.2 3.6l-2.3-2.1c8-5.4 13.6-12.1 15.8-16.6 0.9 1 1.8 2 1.8 2z"/><path class="e" d="m157.2 156.2c-1.5 4.2-3.9 8-16.3 5-13.8-3.3-6.2-13.9-6.2-13.9 2 1.5 2.3 1.7 2.3 1.7 9.8 5.4 10.1 4.2 18.2 6.6 0.3 0.1 1.7 0.5 2 0.6z"/><path class="g" d="m186.7 199.3c-2.8 2.2-5.2 3.6-5.2 3.6l-9.6-8.3c0 0 0 0-3.5 7.2-3.5 7.2-2.5 25.7-2.9 31-7-16.4 5.1-46.6 5.1-46.6 3.5 6.8 15.9 13 16.1 13.1z"/><path class="g" d="m173.8 253c-0.6 1.5-18.1 3.7-29.5 0-11.3-3.8-34.4 10-35.2 9.7-0.7-0.2-1.4-33.9-4.9-48.9-3.5-14.9 2.4-54.2 2.4-54.2l-6.9-2.2c-6.2 0.3-4.3-7-4.3-7 0 0 0.2 7.4 4 5.5 1.7-0.9 1.6-5.9 1-11.2 0 0 12 8.7 18.9 10.7 0 0-1.9 12.3-3.8 28.4-1.8 16.1-0.6 27.1 3 38.3 3.7 11.3 12 22 23.4 23.2 11.5 1.2 22.6 9.2 31.7 6.5q0.3 0.9 0.2 1.2z"/><path class="e" d="m177 118.5q0 0 0 0c-0.3 0.3-0.5 0.4-0.5 0.4l-37.7 13.2c0 0-5.6-2.6-5.2-12.4 0.2-7.1 4.8-10.4 7.3-11.6q-0.5-0.5-0.8-1c-0.4-0.4-0.1-1.1 0.5-1.1q0.7 0 1.2 0.1c-0.1-0.5-0.1-1-0.2-1.4 0-0.5 0.6-0.9 1.1-0.6 0.8 0.4 1.3 0.9 1.6 1.4q0.1-0.1 0.1-0.1c3.6-3.7 8.5-5.9 13.7-6.2 2.8-0.1 6.3-0.4 9.7-0.7 6.6-0.8 11.7 0.4 13.7-1.6 0 0 8.1 13.6-4.5 21.6z"/><path class="e" d="m176.3 116.1c0 0 3.8 9-2.6 14.4 0 0-0.9-10.8 2.6-14.4z"/><path class="c" d="m153.9 157.9q-0.1 0-0.2 0.1c-0.8 0.6-2 1.3-3.7 1.8-3.3 1.1-10.5-2.1-13.6-3.6-0.9-0.4-1.3-1.4-0.9-2.3 1.7-4.6 2.6-9.6 2.5-14.6 0-7.6 3.1-14.7 3.1-14.7-0.8 3.7 0.6 8.9 2.7 14.1 3.5 8.6 8.9 17.3 10.1 19.2z"/><path class="c" d="m171.2 134.9q0.1 2.3-0.7 4.5-0.6 1.8-1.7 3.4l-5 7.1c-1.9 2.7-5.2 3.9-8.3 3-3.5-1.1-8.1-3.1-11.6-6.9-6.6-7.2-3.6-19.2-3.6-19.2 0 0 3.6-12 14.9-14.1 11.2-2.1 20.2 5.8 20.2 5.8l-1 8.8q0 0.8-0.2 1.5c-0.3 1.6-1 3.1-1.9 4.5z"/><path class="e" d="m165.2 123.9c0 0-4.3-6.9-9.4-2.9l0.4 1.4c0 0 4.8-2.4 8.3 3z"/><path class="d" d="m171.2 134.9q0.1 2.3-0.7 4.5c-1-1.2-3.2-2.5-8.3-3.1 0 0 3.1-1.5 5.8-0.9 0.7 0.2 1.4-0.4 1.3-1.1l-0.3-4.9c0 0 0.7-0.8 1.9-0.8 0.8-0.1 2.2 0 3.3 0.2-0.3 1.6-1 3.1-1.9 4.5z"/><path class="e" d="m174.3 127.4c-2-0.4-3.6-0.2-3.6-0.2l-0.6 1.4c1.5-0.1 2.7 0 3.8 0.3 0.5 0.2 1-0.1 1.1-0.6q0 0 0 0c0.1-0.4-0.2-0.8-0.7-0.9z"/><path class="m" d="m167.2 141.4l-13.1-4.6c0 0-0.3 7.7 6.9 9.3 5.7 1.2 6.2-4.7 6.2-4.7z"/><path class="d" d="m154.8 152.4l-0.6 5.2q-0.2 0.1-0.3 0.3-0.1 0-0.2 0.1c-2-0.9-10.1-4.9-10.9-10.9-0.5-3.8 0.2-6.6 1-8.4 0.6-1.4 1.2-2.2 1.2-2.2 1.7 12.8 9.8 15.9 9.8 15.9z"/><path class="c" d="m144.2 125.7c0 0-1.3-5.5-5.6-4.2-4.2 1.2-4.9 12.8 1 12.1 5.9-0.8 4.6-7.9 4.6-7.9z"/><path class="e" d="m156.9 112.4c0 0-2.4 0.3-2.7 3.4-0.3 3.2-0.9 8.5-4.9 8.4-4.1-0.1-4.5 4.8-4.5 4.8l-2.9-0.7c0 0-0.2-8.7 1.7-11.7 1.9-3 10-7.3 13.3-4.2z"/><path class="e" d="m156.5 126.2c0 0 1.4-1.7 4.1-0.9 2.8 0.8 2.7 3.8 2.7 3.8 0 0-1.6-3.9-6.8-2.9z"/><path class="e" d="m169.5 131.1c0 0 1-0.6 2.2-0.1 1.1 0.4 0.7 1.9 0.7 1.9 0 0-0.3-1.9-2.9-1.8z"/><path class="e" d="m220 129.4l46.2 29.2-19.3 30.6-46.2-29.2z"/><path class="e" d="m266.2 158.6l-19.3 30.6-46.2-29.2 2-0.2 62.7-4.4 0.6 2.1z"/><path class="m" d="m266 157.5l-18.5 29.4c-0.7-0.4-0.4-0.2-1.4-0.9l-12.7-29.3 32-1.3z"/><path class="e" d="m221.2 127.5l44.2 27.9-19.3 30.6-44.2-27.9z"/><path class="c" d="m251 143.2q0 0 0 0c-0.4-0.8-1.4-1.5-2-1.6 0-0.7-0.7-1.3-1.5-1.7-0.5-0.2-1.1-0.2-1.6-0.1-0.2-0.8-1.1-1.5-1.7-1.3q0 0-0.4 0.1c-0.1-0.6-0.4-1-0.4-1-0.4-0.9-1.9-1.7-2.6-1.4 0 0-5.8 1-7.1 5-1.4 4-3.1 8.6-1.1 8.3 0.6-0.1 1.3-0.7 1.9-1.5-0.7 2.4-1 4.3 0.4 4.1 0.7-0.1 1.6-1 2.4-2.1-0.6 2-0.6 3.5 0.5 3.4 1.1-0.2 2.5-2 3.5-4-0.6 2.4-0.9 4.1 0.4 4 1.6-0.3 2.7-3.5 4.3-5.9 1.9-2.9 1.8-1.2 3.8-2l1.5 1c0.7-1.8-0.2-3.2-0.3-3.3z"/><path class="e" d="m134.7 147.3c0 0 1.6-13.3-3.9-14.4-10.7-2.1-22.6 13.7-29.1 30.2-9.6 24.8 1.5 43.4 1.5 43.4l0.2-9.5c0 0-0.8-20.6 8.7-36.9 9.6-16.4 16.3-20.8 17.6-19.6 1.4 1.1 1.5 4.2 1.5 4.2z"/><path class="e" d="m159.1 156.8c0 0 3.2-8.3 13.5-4.6 9 3.2 8 12.8 6.6 25.3-1.3 12.6-13.5 43.7-13.5 43.7 0 0-0.6-10.9 0.8-17.5 0 0 8.4-27.6 5.4-38.6-3-10.9-9.7-7.4-9.7-7.4z"/></svg>