<svg version="1.2" xmlns="http://www.w3.org/2000/svg" viewBox="0 0 500 500" width="500" height="500"><style>.a{fill:#f9fff3}.b{opacity:.1;fill:#2c2a40}.c{fill:#7b7b9a}.d{fill:#b0b1ca}.e{fill:#2c2a40}.f{opacity:.2;fill:#2c2a40}.g{fill:#00497b}.h{fill:#f9b587}.i{fill:#f39568}.j{fill:#5b5b6c}.k{fill:#e03641}.l{fill:#3e86aa}.m{fill:#fff}.n{fill:#84519e}</style><path class="a" d="m0 0h500v500h-500z"/><path class="b" d="m411.2 180.8c-8.9-34.8-41.6-32.6-72.6-26.2-16.7 3.5-40 8.3-64.3 1.2-52.5-15.3-112.7-19.1-142.4 0-29.7 19.1-47.6 42.1-39 74.2 8.5 32.2 30.3 61.1 11.8 78.2-18.5 17.2-18.2 82.4 57.9 87.5 76.1 5 68.5-68 118.8-64.6 50.2 3.4 153.4 52.8 157.7 17 4.4-35.9-51.6-61.4-31.5-120.9 4-11.8 7.7-30.5 3.6-46.4z"/><path class="b" d="m236.3 123.9c0 0 1.9-12.5 7.4-12 1.5 0.1 2.6 1.6 3.2 3.3 0.4 1 1.9 0.9 2.2-0.1 1.4-5.1 4.4-12.8 9-12.8 4.7 0 4.9 8.8 4.6 14.2-0.1 0.8 1 1.2 1.4 0.5 1.3-1.8 3.1-3.6 5.3-3.1 4.3 1 3.2 10 3.2 10z"/><path class="b" d="m36.2 241.2c0 0 1.9-12.5 7.4-12 1.5 0.1 2.6 1.7 3.2 3.3 0.4 1 1.9 1 2.2-0.1 1.5-5.1 4.4-12.8 9-12.8 4.7 0 4.9 8.9 4.6 14.3-0.1 0.8 1 1.1 1.4 0.5 1.3-1.9 3.1-3.7 5.3-3.1 4.3 1 3.2 9.9 3.2 9.9z"/><path class="b" d="m421.2 191.3c0 0 1.9-12.4 7.4-11.9 1.5 0.1 2.5 1.6 3.2 3.3 0.4 1 1.9 0.9 2.2-0.1 1.4-5.1 4.4-12.8 9-12.8 4.7 0 4.9 8.8 4.5 14.2 0 0.8 1 1.2 1.5 0.5 1.2-1.8 3.1-3.6 5.3-3.1 4.3 1 3.1 9.9 3.1 9.9z"/><path class="c" d="m406.8 395c0 0 6.1-1 5.8-9.1-0.4-8.1-3.1-19.3-8.5-22.5-5.4-3.2-9.3 1.4-9.3 1.4z"/><path class="d" d="m382.8 363.4c0.1 2.7 2.6 6.7 8 9.5 5.4 2.9 8.3 13.1 10.7 17.6 1.1 2.1 2.3 3.2 3.3 3.8 1.2 0.7 2 0.7 2 0.7 0 0 0.1-0.7 0.1-1.9 0-2.9-0.1-8.8-1.2-15-1.5-8.8-6.7-11.8-6.7-11.8-0.9-1.6-3-2.8-5.3-3.5-3.8-1.2-8.4-1.3-10.2-0.4-0.5 0.3-0.8 0.6-0.7 1z"/><path class="e" d="m403.6 376.7c1.3 5.4 1.9 14.3 1.2 17.6 1.2 0.7 2 0.7 2 0.7 0 0 0.4-8.1-1.1-16.9-1.5-8.8-6.7-11.8-6.7-11.8-0.9-1.6-3-2.8-5.3-3.5 3.1 3.1 8.9 9.3 9.9 13.9z"/><path class="f" d="m382.8 363.4c0.1 2.7 2.6 6.7 8 9.5 5.4 2.9 8.3 13.1 10.7 17.6 1.1 2.1 2.3 3.2 3.3 3.8 1.2 0.7 2 0.7 2 0.7 0 0 0.1-0.7 0.1-1.9q-0.2-0.2-0.4-0.2c-1.8-0.5-4.3-1.2-5.7-7.8-1.4-6.7-3.9-11.5-8-13.6-3.8-1.9-8.5-8-9.3-9.1-0.5 0.3-0.8 0.6-0.7 1z"/><path class="e" d="m339.3 194.6c0 0 41.7-6.3 52.9 11.4 11.3 17.6-3.8 76.7-16.1 85.6-12.2 9-32.6 4.4-40.2-1.3-7.6-5.6-11.1-87.2 3.4-95.7z"/><path class="g" d="m387.5 268.1c0 0 5.3-1.3 7.2-7.5l-6.3-2.7c0 0-2.4 6.3-0.9 10.2z"/><path class="h" d="m387.5 257.2c8.7 13.1 28.1 16.6 28.1 16.6 4.1-1.2 9.4-6.8 14.7-13.7 10.1-13 20-30.4 20-30.4l-8.1-2.7c0 0-14.2 15.7-20.3 19.1-6.1 3.4-7.9 6.6-7.9 6.6q-0.9-1-2.1-2c-4.4-3.6-10.4-6.4-10.4-6.4-6.9-1.9-14 12.9-14 12.9z"/><path class="i" d="m387.5 257.2c8.7 13.1 28.1 16.6 28.1 16.6 4.1-1.2 9.4-6.8 14.7-13.7 0 0-9.4 10.1-15.5 11-6 0.8-17.4-7.4-18.6-10.5-1.1-3.2 0.6-11.2 5.3-16.3-6.9-1.9-14 12.9-14 12.9z"/><path class="e" d="m304.8 291.6c0 0-0.5 26.6 3.3 43.3 3.7 16.7 19.6-27.4 19.6-27.4 0 0-14.3-12.5-22.9-15.9z"/><path class="e" d="m360.4 307.2c0 0-0.4 15.6-10.6 26.7-10.3 11-14.7 23.9-14.7 23.9 0 0 15.4-7 25.3-5.1 0 0 5.2 0.3 7-1.9 1.9-2.1 2.5-4.7 5.4-3.9 3 0.8 7.2-0.1 8.2-0.2 1.1-0.2 8 10.7 6.7 17.9 0 0-5.4 1.5-6.1 2.4-0.7 0.9-4.6 5-7 4.9-2.4-0.2-8.9 3.6-8.9 3.6 0 0-33.3 12.7-36.4 14.8-5.1 3.6-29.4 7.6-31.5-6.1-2.2-13.6 19-78.2 21.9-85.2 3-7.1 37.1-0.3 40.7 8.2z"/><path class="j" d="m330.1 352l0.9 0.4q0.5-1.4 1.2-3l-0.9-0.4q-0.7 1.6-1.2 3z"/><path class="j" d="m379.3 350.7l0.3 0.9q1.4-0.3 3.1-0.6l-0.1-1q-1.7 0.3-3.3 0.7z"/><path class="j" d="m329.8 359.7l-1 0.1v0.1c0.2 1.4 0.6 2.5 1.3 3.2l0.7-0.7q-0.8-0.8-1-2.6z"/><path class="j" d="m337.7 362.7l0.3 0.9c1-0.3 2.1-0.6 3.1-0.9l-0.3-1c-1 0.3-2.1 0.7-3.1 1z"/><path class="j" d="m336.9 339.4q-0.9 1.5-1.8 2.8l0.9 0.5q0.8-1.3 1.7-2.7z"/><path class="j" d="m334.8 344.6l-0.8-0.5q-0.9 1.5-1.6 2.9l0.8 0.4q0.8-1.3 1.6-2.8z"/><path class="j" d="m355.5 306.1l-0.9-0.2q-0.3 1.6-0.7 3.2l1 0.2q0.4-1.6 0.6-3.2z"/><path class="j" d="m340.9 335.5l-0.9-0.6q-1 1.4-1.8 2.7l0.8 0.5q0.9-1.2 1.9-2.6z"/><path class="j" d="m343.3 330.4q-1 1.3-1.9 2.7l0.8 0.5q0.9-1.3 1.9-2.6z"/><path class="j" d="m330.3 354.5l-0.9-0.3q-0.5 1.8-0.6 3.3l1 0.1q0.1-1.5 0.5-3.1z"/><path class="j" d="m332.5 363.3l-0.2 1q0.6 0.1 1.3 0.1 0.9 0 2.1-0.2l-0.1-1c-1.3 0.2-2.3 0.3-3.1 0.1z"/><path class="j" d="m359.3 359l0.1 0.9q1.7-0.2 3.3-0.7l-0.3-0.9q-1.5 0.4-3.1 0.7z"/><path class="j" d="m364.5 357.6l0.4 1q1.6-0.6 3-1.3l-0.4-0.9q-1.4 0.7-3 1.2z"/><path class="j" d="m342.9 361l0.3 1c1.3-0.4 2.2-0.7 3.1-0.9l-0.2-1c-0.9 0.2-1.9 0.5-3.2 0.9z"/><path class="j" d="m353.9 359.4v1q1.6 0 3.3-0.1l-0.1-1q-1.6 0.1-3.2 0.1z"/><path class="j" d="m374 352.2l0.3 0.9q1.3-0.5 3.1-0.9l-0.3-1q-1.8 0.5-3.1 1z"/><path class="j" d="m370.8 354.1q-0.5 0.6-1.4 1.2l0.5 0.8q1-0.7 1.7-1.4 0.3-0.3 0.8-0.6l-0.5-0.9q-0.7 0.4-1.1 0.8z"/><path class="j" d="m353.4 311.3q-0.4 1.5-1 3l1 0.4q0.5-1.6 0.9-3.2z"/><path class="j" d="m344.6 328.6l0.8 0.6q1-1.3 1.9-2.6l-0.8-0.6q-0.9 1.3-1.9 2.6z"/><path class="j" d="m350.3 321.9l-0.9-0.5q-0.8 1.4-1.6 2.7l0.8 0.6q0.9-1.4 1.7-2.8z"/><path class="j" d="m350.4 319.4l0.9 0.4q0.7-1.4 1.3-3l-0.9-0.4q-0.6 1.6-1.3 3z"/><path class="j" d="m348.3 359.6l0.2 1c1.2-0.2 2.2-0.3 3.1-0.2l0.1-1c-1.1-0.1-2.1 0-3.4 0.2z"/><path class="h" d="m303.6 114.2l4 17.3 0.1 0.1c0 0 0.2 3.3 1.1 7.5 1 4.7 2.7 10.7 5.7 15q0.6 1 1.4 1.8c0 0 2.6 9.9 5.4 18.4 1.6 5.1 3.3 9.6 4.6 11.4 0 0 16.4-3.1 12.5-12.9 0 0-5.6-12.8-10-22.2q0 0 0 0c-0.9-1.9-1.7-3.6-2.4-5l-5-11.5-2.4-5.5-7.3-16.7z"/><path class="i" d="m321.3 174.3c1.6 5.1 3.3 9.6 4.6 11.4 0 0 16.4-3.1 12.5-12.9 0 0-5.6-12.8-10-22.2 0.1 0.3 3.9 13.8 2.8 17.6-1.2 3.9-4.6 7.5-9.9 6.1z"/><path class="k" d="m321.4 186.4c0.2 7.1 3.2 15.6 6.6 20.7 2 2.1 4.6 2.1 7.2 1 6.7-2.9 13.7-13 13.7-13l-9.6-20.3-0.9-2c-5.5 1.5-11 5.4-14.1 7.9-1.8 1.4-2.8 2.3-2.8 2.3q-0.2 1.6-0.1 3.4z"/><path class="f" d="m321.4 186.4c0.2 7.1 3.2 15.6 6.6 20.7 2 2.1 4.6 2.1 7.2 1-5.8-5.7-9.7-21.7-10.9-27.4-1.8 1.4-2.8 2.3-2.8 2.3q-0.2 1.6-0.1 3.4z"/><path class="e" d="m321.4 186.4c4.5-4.5 14.8-10 17.9-11.6l-0.9-2c-8.4 2.3-16.9 10.2-16.9 10.2q-0.2 1.6-0.1 3.4z"/><path class="k" d="m299.5 295c12.5 16.3 64.8 17.3 64.8 17.3 0 0-1.8-21.5 0-32.1 2-11.7 3.8-28.8 3.8-28.8 4.8 3.5 12.1 10 16.3 13.8 1.9 1.7 3.1 2.9 3.1 2.9 1.4-6 3.2-10.6 5.1-14 4.3-7.8 8.9-9.8 8.9-9.8l-2.2-2.8-15.8-20.7-17.1-14.2-2.9-2.4-13.4-8.6-5.5-3.5c0 0-14.2 5.9-18.3 12.1-4 6.2-13.3 34.8-16.1 48.8-3.7 18.2-8.1 33.6-9.9 39.5-0.5 1.7-0.8 2.5-0.8 2.5z"/><path class="f" d="m299.5 295c12.5 16.3 64.8 17.3 64.8 17.3 0 0-1.8-21.5 0-32.1 2-11.7 3.8-28.8 3.8-28.8 4.8 3.5 12.1 10 16.3 13.8 1.9 1.7 3.1 2.9 3.1 2.9 1.4-6 3.2-10.6 5.1-14 0 0-18.4-9.9-26.2-18.6 0 0-9.7 27-13.1 40.6-4.4 17.6-19.1 24.8-32.6 23.9-13.6-0.9-20.4-7.5-20.4-7.5-0.5 1.7-0.8 2.5-0.8 2.5z"/><path class="e" d="m358.1 209.8c3.1-0.6 4.7-2.3 7-4.3l-1.6-1.3-14.3-11.4c-1.9 1.2-4.3 2.4-4.6 7.3-0.5 7.2 7.2 10.9 13.5 9.7z"/><path class="e" d="m384.4 265.2c1.9 1.7 3.1 2.9 3.1 2.9 4.3-19.7 14-23.8 14-23.8l-2.2-2.8c-4 2.8-12.3 10.2-14.9 23.7z"/><path class="e" d="m374.2 187.6c0 0 0.3 7.8-8.7 9.4 0 0 2.3-10.2 8.7-9.4z"/><path class="k" d="m359.5 170.8c5.4 8.8 14.2 16.1 14.2 16.1 0 0 18.8-9 12.6-23.9-1.7-4-3.7-6.9-5.9-9-9.4-9-21.9-3.2-21.9-3.2-5.4 5.7-3.2 13.3 1 20z"/><path class="l" d="m380.4 154z"/><path class="f" d="m359.5 170.8c5.4 8.8 14.2 16.1 14.2 16.1 0 0 18.8-9 12.6-23.9-1.7-4-3.7-6.9-5.9-9 0.1 0.1 5.3 8.4 0 13.9-5.3 5.6-14.6 7.6-20.9 2.9z"/><path class="e" d="m373.6 166.9c0 0-4.9-25.4-20.6-24.3-14.7 1.1-3.2 20.6-3.2 20.6 0 0 21.2 6 23.8 3.7z"/><path class="e" d="m354.2 157.9c0 0-6.7 1.3-6.1 7.5 0 0 5.7-3.4 6.1-7.5z"/><path class="h" d="m366 195.4l-2.5 8.8c-0.3 1.2-1.2 2.1-2.4 2.4-10.3 2.3-15.2-5.3-14.2-7.9 1.4-0.5 24.3-7.8 28.5-16.6 0 0-1.5 7.8-9.4 13.3z"/><path class="h" d="m348.1 195c3.3 1.3 8 2.5 12.8 1.6 9.1-1.6 13.9-12.4 13.9-12.4 0 0 1.5-7.3-0.6-14.1-0.5-1.9-1.3-3.7-2.5-5.3-4.3-5.7-11.4-6.8-15.4-7.2-1.9-0.1-3.8 0.8-4.8 2.5l-1.7 2.8-1.2 1.9q-0.4 0.6-0.7 1.2c-0.6 1.4-1 3-1.2 4.5l-0.1 1.9q-1.3 1.7-2 3.7-0.6 1.8-0.7 3.7l-0.4 8.2c-0.1 3.1 1.7 5.9 4.6 7z"/><path class="e" d="m357.6 167.5c0 0 7.3-2.7 8.8 3.3l-1.1 0.9c0 0-2.2-4.7-8-2.6z"/><path class="i" d="m346.6 172.4q-1.3 1.7-2 3.7c1.4-0.3 3.9 0 8.1 2.6 0 0-1.5-3-3.9-4.1-0.6-0.3-0.8-1.1-0.3-1.6l3.1-3.5c0 0-0.2-1-1-1.8-0.6-0.4-1.7-1.2-2.7-1.7-0.6 1.4-1 3-1.2 4.5z"/><path class="e" d="m348.7 164.9c1.7 0.8 2.9 1.9 2.9 1.9l-0.5 1.4c-1-0.9-2-1.5-3-1.9-0.5-0.2-0.7-0.7-0.5-1.1q0 0 0 0c0.2-0.4 0.7-0.6 1.1-0.3z"/><path class="m" d="m345.9 179.6l12.6 4.2c0 0-4.2 5.9-10.6 2.9-5-2.3-2-7.1-2-7.1z"/><path class="i" d="m348.9 195.1c0 0 8 2.4 16.6-6.3 0 0 0.2 4.7-4.4 9.3-3.4 3.3-9.8 2.7-13 2.2-0.9-0.2-1.5-1.2-1-2.1z"/><path class="h" d="m372.4 181.1c0 0 4.2-3.4 6.7 0 2.5 3.4-3.7 12.6-7.8 8.6-4-4 1.1-8.6 1.1-8.6z"/><path class="e" d="m357.4 172c0 0 1.6-1.8 3.6-1 2.8 1.2 2.3 3.9 2.3 3.9 0 0-1.1-5-5.9-2.9z"/><path class="e" d="m350.4 170.7c0 0-1-3.1-3.4-0.8 0 0 2.1-1.2 3.4 0.8z"/><path class="i" d="m349.7 162.8c0 0.1-0.2 0.5-0.2 0.6 0 0 4.1-3.5 11.3-0.7 7.2 2.8 10.7 9.6 10.7 9.6l2.7-2.2c-0.5-1.9-1.3-3.7-2.5-5.2-4.3-5.8-11.4-6.9-15.4-7.3-1.9-0.1-3.8 0.8-4.8 2.5z"/><path class="e" d="m370.2 181.6l2.4 1.1 3.4-3.1c0.6-3-1.8-11-2.4-12.7-0.3-0.3-0.8-0.6-1.1-0.9 0 0-2.4 8.2 0.1 11.3z"/><path class="i" d="m307.6 131.5l0.1 0.1c0 0 0.2 3.3 1.1 7.5l12.2-5-2.4-5.5z"/><path class="f" d="m325.5 215l9.6 8.6c0 0-3.4 13.6-10.8 10.5-8.9-3.6 1.2-19.1 1.2-19.1z"/><path class="e" d="m337.7 124.6l-43 16.1-10.6-28.5 42.9-16z"/><path class="e" d="m284.1 112.2l10.6 28.4 43-16-1.7-0.4-50.7-14.4-0.8 1.6z"/><path class="m" d="m284.5 111.4l10.2 27.3c0.5-0.3 0.3-0.2 1.3-0.5l15.4-21.8-26.1-6.6z"/><path class="e" d="m337 122.9l-41 15.3-10.6-28.4 41-15.3z"/><path class="h" d="m299.2 102.2q0 0 0 0c0.5-0.6 1.4-1 2-0.9 0.1-0.6 0.8-1 1.5-1.2 0.4 0 0.9 0 1.3 0.2 0.3-0.6 1.2-1 1.6-0.7q0 0 0.3 0.1c0.2-0.5 0.6-0.7 0.6-0.7 0.4-0.7 1.8-1.1 2.3-0.8 0 0 4.6 1.8 5 5.4 0.4 3.5 1.1 7.5-0.6 6.9-0.4-0.1-0.9-0.7-1.3-1.5 0.2 2.1 0.1 3.7-1 3.3-0.5-0.2-1.1-1.1-1.6-2.2 0.1 1.8-0.1 3.1-1 2.7-0.9-0.3-1.7-2-2.2-3.8 0.2 2 0 3.5-1 3.2-1.2-0.5-1.6-3.3-2.5-5.6-1-2.7-1.3-1.3-2.8-2.3l-1.3 0.6c-0.3-1.6 0.6-2.6 0.7-2.7z"/><path class="h" d="m439.9 231.5c-1.9-1.2-3.3-3-3.9-5.2q-0.3-0.9-0.6-1.9c-0.9-2.5-0.2-7.9 0-10.1 0.2-2.1 1.7-6.3 2.2-6.7 0.4-0.5 3.1 1.4 2 4.2-1.1 2.8-0.3 5.9 0.3 6.8 0.5 0.8 3-0.8 3.7-2.4 0.6-1.6 6.1-13.8 7.2-14.2 1-0.3 1.9-0.1 1.2 3.1-0.7 3.1-4.1 8.6-3.7 10.1 0.5 1.5 1.3 0.3 1.6-0.5 0.2-0.8 4.6-12.4 5.3-12.8 0.8-0.4 2.8-1.1 1.8 3.7-1.1 4.9-4.5 10.9-4.3 12 0.2 1.1 4.8-10.8 6.1-11.5 1.3-0.7 2.2 0.5 1.2 3.5-1 2.9-3.7 8.7-3.9 9.3-0.2 0.6-0.1 1 0.4 0.8 0.4-0.3 3.3-7.3 3.9-7.7 0.7-0.4 2.3 0.3 0.6 5.1-1.8 4.8-3 9-7.7 13.4-3 2.8-4.4 4.4-7.2 4-1.6-0.2-4.1-1.7-6.2-3z"/><path class="e" d="m380.4 218.1c0 0 1.2-13-9-15.7-7.3-1.9-19.6 11.5-22.8 26.6-5.5 26.7 7.3 50 15.7 53 0 0 7.7-5.9 1.8-13.9 0 0-15.7-15.9-8.7-38.8 5.8-19.1 15.2-24 18.7-14.6z"/><path class="e" d="m315.4 233.2l4.4-13.4c0 0-0.6-23.4 24.1-29.3q-0.4-1.2-0.4-2.5l0.2-3.5c-3.1 0.2-34.6 9.3-28.3 48.7z"/><path class="i" d="m414 260.6c-0.5-4.3 0-7.9 0-7.9q-1-1-2.1-2c-1.1 8.3 2.1 9.9 2.1 9.9z"/><path class="i" d="m314.5 154.1q0.6 1 1.4 1.8c0 0 4.2-2.4 5.4-3.1 0 0-3.9 0.1-6.8 1.3z"/><path class="d" d="m381 347.3c2.3 2.1 4.1 7 5.3 11q0 0 0 0c0.9 3.3 1.4 5.9 1.4 5.9 2 2.1 6.6 1.5 13.8 2.3 6.6 0.7 11.2 5.3 16 7.2q0 0 0 0 0.9 0.4 1.7 0.6c2.9 0.7 4.9 0.3 6-1.1 1-1.3 1.3-3.3 0.7-5.9-1.2-5.4-14.8-17.3-18.7-18.8-3.9-1.6-6.3-2.5-11-6.4-4.6-3.8-9.4-4-10.3-2.6q-0.2 0.4-0.7 1.1c-1.4 2.3-4.2 6.7-4.2 6.7z"/><path class="e" d="m385.2 340.6c1.5-0.2 4.1-0.3 6 0.8 2.8 1.6 6.7 5.4 11 7.4 4.2 1.9 12.3 7.5 16.5 11.5 4.2 3.9 6.7 10.1 5.5 12.2-1.3 2-3.5 2-6.7 1.2q0.9 0.4 1.7 0.6c5.5 1.4 7.9-1.6 6.7-7-1.2-5.4-14.8-17.3-18.7-18.8-3.9-1.6-6.3-2.5-11-6.4-4.6-3.8-9.4-4-10.3-2.6q-0.2 0.4-0.7 1.1z"/><path class="f" d="m386.3 358.3c0.9 3.3 1.4 5.9 1.4 5.9 2 2.1 6.6 1.5 13.8 2.3 6.6 0.7 11.2 5.3 16 7.2q0 0 0 0 0.9 0.4 1.7 0.6c2.9 0.7 4.9 0.3 6-1.1l0.4-2.2c0 0-4.8 2.5-10.4-0.8-4.3-2.4-6.2-4.9-9.6-5.8 0.6-2.6-0.8-5.4-0.8-5.4-0.3 2.9-1.1 4.9-1.1 4.9q-1-0.1-2.2 0c-5.5 0.2-14.2-2.5-15.2-5.6z"/><path class="d" d="m61.3 306.9c1.7-0.1 3.1-0.9 4.3-2.2q0 0 0.1-0.1 0 0 0 0c2.1-2.3 3.6-5.7 5.1-8.3q0.6-1.1 1.3-2c1.4-1.8 3.8-6.4 6-10.7q0.1-0.3 0.3-0.6c2.1-4.2 3.8-7.9 3.8-7.9 0 0-0.8-2.3-2.1-4.7-0.4-0.7-0.8-1.4-1.3-2.1-0.9-1.4-2-2.5-3.1-2.8-3.6-1.1-7 1.2-9.7 4.5-2.7 3.1-10.2 16.4-11.4 21.9q0 0.2-0.1 0.4c-1.2 6.9 1.1 15 6.8 14.6z"/><path class="e" d="m61.3 306.9c1.7-0.1 3.1-1 4.4-2.3-3.9 1.9-6.3 0.7-7.7-0.8-1.7-1.9-2.3-7.3-1.9-9.5 1.1-5.5 5.1-14.1 7.2-17.5 2.1-3.4 6.2-9 10.1-9.6 2.3-0.3 4.2 0.4 5.4 1.1-0.9-1.4-2-2.5-3.1-2.8-3.6-1.1-7 1.2-9.7 4.5-2.8 3.2-10.5 17-11.5 22.3-1.2 6.9 1.1 15 6.8 14.6z"/><path class="f" d="m61.3 306.9c1.7-0.1 3.1-0.9 4.3-2.2q0 0 0.1-0.1 0 0 0 0c2.1-2.3 3.6-5.7 5.1-8.3q0.6-1.1 1.3-2c1.4-1.8 3.8-6.4 6-10.7q0.1-0.3 0.3-0.6c-0.7-0.8-1.6-1.2-2.7-0.9 0 0-2.8 2.6-5.4 7.9-2.9 5.8-4.5 11.3-9.9 11.4-5.4 0-4.4-3.5-5.1-8.7-0.1-0.7-0.4-0.9-0.7-0.8q0 0.2-0.1 0.4c-1.2 6.9 1.1 15 6.8 14.6z"/><path class="d" d="m151 355.6c0 3 2.4 22.8 8.9 26.9 3.2 2 5.1 1.9 6 0.4 0.6-0.9 0.8-2.2 0.8-3.9q0-1.8-0.2-4.1c-0.9-7.2-1-24.1 5.4-27.8 0 0-1.2-8.7-4.2-14-0.9-1.7-2-3-3.2-3.7 0 0-4.5 0.1-7.3 0.5-1.2 0.1-2.9 0.1-4.4 0.5-2 0.5-3.9 1.9-4.3 5.6-0.9 6.6 2.4 16.6 2.5 19.6z"/><path class="e" d="m151 355.6c0 3 2.4 22.8 8.9 26.9 3.2 2 5.1 1.9 6 0.4-1.6 0.1-3.9-0.5-5.9-2.2-2.9-2.5-6.4-16.1-6.2-20.5 0.2-4.4-1.6-12.4-3.2-18.6-1.2-4.6 1-9.2 2.2-11.2-2 0.5-3.9 1.9-4.3 5.6-0.9 6.6 2.4 16.6 2.5 19.6z"/><path class="f" d="m151 355.6c0 3 2.4 22.8 8.9 26.9 3.2 2 5.1 1.9 6 0.4 0.6-0.9 0.8-2.2 0.8-3.9-1.2 0.3-3.1-0.2-5.2-1.4-3.8-2.1-4.6-13.8-4-21.4 0.5-7.7-4.1-13.8-1.4-18.6 2.6-4.9 11.3-3.8 11.3-3.8q0.2-0.4 0.3-0.7c-0.9-1.7-2-3-3.2-3.7 0 0-4.5 0.1-7.3 0.5-1.2 0.1-2.9 0.1-4.4 0.5-2 0.5-3.9 1.9-4.3 5.6-0.9 6.6 2.4 16.6 2.5 19.6z"/><path class="e" d="m151.5 144.9c0 0-39 1.1-46.4 19-7.5 18 16 69.5 28.6 75.6 12.6 6.2 30.5-1.3 36.5-7.7 6-6.4-4-81.5-18.7-86.9z"/><path class="h" d="m127.2 192.8c0 0-0.1 7.2-3.1 15.1 0 0-0.8 5.3-2.2 11.8q0 0 0 0c-1.6 7.7-3.2 13.4-5.5 18.1-1.9 3.9-3.3 7.7-4.3 10.6q-0.1 0.5-0.3 1c-0.9 3-1.3 4.9-1.3 4.9l-8.6-2.9c0 0-0.5-9-0.4-13.9 0.2-6.1-0.4-18 3.5-27.8q0 0 0 0 0.5-1.2 1-2.2c0 0 1.1-9.7 2.7-16.1 0.5-2.1 1.1-3.9 1.7-4.8 0 0 12.7-1.4 16.8 6.2z"/><path class="i" d="m111.5 208.4c0 0-5 0-6.5 1.3q0 0 0 0 0.5-1.2 1-2.2c0 0 3.8-0.2 5.5 0.9z"/><path class="i" d="m127.2 192.8c0 0-0.1 7.2-3.1 15.1 0 0-0.8 5.3-2.2 11.8 0.5-4.9 0.2-13.7 0.3-20.1 0-4.4-3.9-5.5-7.4-6.7-1.4-0.5-4.2-1-5.9-1.6-0.1 0-0.2 0.1-0.2 0.1 0.5-2.1 1.1-3.9 1.7-4.8 0 0 12.7-1.4 16.8 6.2z"/><path class="h" d="m109.2 247.6l8.2 5.8c0.9 0.6 1.4 1.6 1.4 2.7l0.2 7.9c0 0.9-0.8 1.7-1.7 1.7-0.8 0-1.5-0.5-1.7-1.3l-1.9-7.4-1.9-0.7 1.2 4.4 1.5 4.1 3.7 4.6c0.6 0.7 0.4 1.7-0.3 2.2-0.6 0.5-1.4 0.4-2-0.2l-4.9-5.1-3.3-4 2.6 5.1 5 7.4c0.3 0.5 0.3 1.2 0 1.7-0.5 0.7-1.6 0.8-2.2 0.2l-5.5-5.4-3-4.8 2.7 8.5 2.4 5.4c0.2 0.6 0 1.3-0.5 1.6-0.7 0.4-1.5 0.2-1.8-0.4l-3.5-5.6-2.5-6.6 1.6 5.7 0.9 1.9c0.2 0.4 0 0.9-0.4 1-0.4 0.2-0.8 0.1-1-0.2l-1.3-1.8-2-4.7 2.8-20c0 0 1.1-2.7 7.2-3.7z"/><path class="i" d="m111.8 249.4c0 0-2.5-1.5-5.5-1.1 0 0 3.2-1.2 5.8 0.1z"/><path class="h" d="m189.9 129.7c8.8-17.2 5.2-39.8 4.6-45.5q-0.1-0.8-0.7-2 0-0.1 0-0.1c-3.3-7.8-18.2-29-21.7-33.8q-0.3-0.5-0.5-0.7-0.1-0.3-0.1-0.3l-10.6 4.9c0 0 7.1 7.4 9.9 16.7 2.8 9.3 9.4 21.4 9.4 21.4-2.9 10.8-3.1 24.9-3.1 24.9 5 11.9 12.8 14.5 12.8 14.5z"/><path class="i" d="m189.9 129.7c8.8-17.2 5.2-39.8 4.6-45.5q-0.1-0.8-0.7-2c0 0.2-0.2 18.4-1.4 24.3-1.2 5.9-3.1 12.2-6.5 13-3.5 0.8-7-1.1-8.8-4.3 5 11.9 12.8 14.5 12.8 14.5z"/><path class="h" d="m171.4 48.2c-1.4 1.5-7.5 5.6-8.4 6-0.3 0.1-0.7-0.1-1.1-0.4-0.4 0-3.1 0.1-4.6-0.6-0.8-0.4-0.7-1.5-0.5-2.8-1.9-0.5-5.6-3.5-5.5-6.4 0.1-3 3.4-3.2 3.4-3.2 0.2-3.5 3.5-2.9 3.5-2.9 0.2-1.5 3-2.1 3-2.1 0.4-1.3 2.2-1.5 3.3-1 1 0.6 7.3 8.2 7.5 9.6 0.3 1.4-0.6 3.8-0.6 3.8z"/><path class="i" d="m161.8 48.9c0.5 1.7-1 1.9-1 1.9 0.3-0.2 0.3-0.9 0.2-1.6 0 0 0-0.4-0.1-1q0 0 0 0c-0.2-0.6-0.6-1.2-1.3-1.6-1.3-0.6-1.9-0.2-1.9-0.2l-2.6-3.7c1.4 0.9 3.1 2.9 3.1 2.9 2.4-0.1 3.2 1.7 3.5 2.7 0.5-0.1 1-0.3 1.2-0.9 0.4-1.3-0.4-2.5-0.4-2.5l-3.6-5c0 0 4.9 4.8 5 6.6 0.1 2.4-2.1 2.4-2.1 2.4z"/><path class="i" d="m162.6 38.5c0 0 3.2 3.9 3.6 5 0.5 1.2-0.3 2.4-1.2 2.6-0.8 0.2-1.3-0.3-1.3-0.3v1.3c0 0 3.3 0.6 3.3-2.6 0-1.6-4.4-6-4.4-6z"/><path class="i" d="m166.8 43.8c0 0 0.8 0.8 1.8 0.5 1-0.3 1.2-1 1-1.6 0 0 0.5 0.6 0 1.5-0.7 1-2.3 0.8-2.8 0.7z"/><path class="i" d="m170.2 49.6c0 0 1.2-0.2 1.9-1.3q-0.3-0.5-0.5-0.7c0 0-0.5 1-1.4 2z"/><path class="i" d="m162.7 54.2c0 0 1.5-0.1 2.4-0.6 0 0-0.8 1-1.9 1.3z"/><path class="i" d="m180.2 90.3c0 0 4.6-0.7 6.2-2 0 0-1.7 4-6.7 4.1z"/><path class="e" d="m74.8 289.2c1.9 1.4 1 1.7 2.8 2.7 1.8 0.9 6.5 4.8 6.8 5q0 0 0 0c12.1 12.9 32.6 33 43.8 34.5 10.4 1.5 26-27.9 36-49.5q0 0 0 0c0.1-0.1 4.2-6.1 10.3-4.4 6.1 1.8 28.8 23.1 39.2 28.5 0 0-14 0.7-18.5 6.6-4.6 5.8-17.3 11.4-19.7 12.4-2.3 0.9-3.5-0.1-5.6 1.3-2.2 1.4-5.4 3.1-5.4 3.1-0.1 6.6 2.3 12.2 7.1 17.9 0 0 2-1.1 3.9-1.6 2.6-0.8 8.2-2.3 9.2-4.1 1-1.9 35.5-9.1 35.5-9.1 0 0 26.4-5.3 28.5-17.8 2.1-12.6-51.7-69.1-51.7-69.1l-4.2-18.1-19.4 3.2-35.4 2.7c0 0-6.1 16.3-7.8 31-1.1 9.8-7.6 33.2-7.6 33.2 0 0-6-6.2-17.7-11.2-2.9-1.3-6-2.6-8.9-4 0 0-4.5-2.2-6-4.4-1.5-2.1-2.5-1.3-4.1-1.8-1.7-0.5-3.1-2.5-4.2-2.3-1.1 0.2-1.5 0.8-1.5 0.8-2.8 2.6-4.1 4.4-6 10.9 0 0-1.2 2.2 0.6 3.6z"/><path class="j" d="m106.5 292.9l-0.4 0.6q1.2 0.8 2.6 1.9l0.5-0.6q-1.4-1.1-2.7-1.9z"/><path class="j" d="m101.6 290.2l-0.3 0.7q1.2 0.6 2.3 1.2 0.3 0.1 0.6 0.3l0.3-0.7q-0.3-0.1-0.6-0.3-1.1-0.5-2.3-1.2z"/><path class="j" d="m96.5 288.2q1.4 0.9 2.8 1.6l0.4-0.6q-1.4-0.8-2.9-1.6z"/><path class="j" d="m110.5 296.7q1.2 1 2.5 2.1l0.5-0.6c-0.9-0.7-1.7-1.4-2.5-2.1z"/><path class="j" d="m119.3 303.4l-0.5 0.6c1 0.9 1.8 1.5 2.3 1.8q0.1 0.1 0.3 0.2l0.3-0.7q-0.1 0-0.2-0.1c-0.5-0.3-1.2-0.9-2.2-1.8z"/><path class="j" d="m123.6 305.2l0.3 0.7q1.2-0.7 2.4-2.4l-0.6-0.5q-1.1 1.6-2.1 2.2z"/><path class="j" d="m115.2 299.7l-0.5 0.6q1 0.9 2 1.8l0.4 0.4 0.5-0.6-0.4-0.3q-1-0.9-2-1.9z"/><path class="j" d="m91.8 285.3q1.3 0.9 2.7 1.8l0.4-0.7q-1.4-0.9-2.7-1.7z"/><path class="j" d="m78.8 277.5q-0.3 0.4-0.6 0.7c0.6 0.1 1.5 0.2 2.4 0.4l0.2-0.7c-0.8-0.2-1.5-0.3-2-0.4z"/><path class="j" d="m83 278.6l-0.3 0.7q1.7 0.6 2.5 1.4 0.1 0 0.2 0.1l0.5-0.5q-0.1-0.1-0.2-0.2-0.9-0.9-2.7-1.5z"/><path class="j" d="m87.6 281.6l-0.4 0.6q1.1 0.9 2.7 1.9l0.4-0.6q-1.5-1-2.7-1.9z"/><path class="j" d="m136.9 258.5l0.7 0.2q0.4-1.6 0.8-3.2l-0.7-0.2q-0.4 1.6-0.8 3.2z"/><path class="j" d="m138.3 253.2l0.7 0.2q0.5-1.6 0.9-3.2l-0.7-0.2q-0.5 1.6-0.9 3.2z"/><path class="j" d="m134.2 269.2l0.8 0.2q0.3-1.6 0.7-3.2l-0.7-0.2q-0.4 1.6-0.8 3.2z"/><path class="j" d="m135.5 263.8l0.7 0.2q0.4-1.5 0.8-3.2l-0.7-0.1q-0.4 1.6-0.8 3.1z"/><path class="j" d="m139.8 247.9l0.7 0.2q0.5-1.6 1-3.2l-0.7-0.2q-0.5 1.6-1 3.2z"/><path class="j" d="m126.8 301.1l0.7 0.4q0.7-1.4 1.3-3l-0.7-0.3q-0.6 1.6-1.3 2.9z"/><path class="j" d="m143.1 237.3l0.7 0.3q0.6-1.7 1.1-3.1l-0.7-0.3q-0.5 1.4-1.1 3.1z"/><path class="j" d="m141.4 242.6l0.7 0.2q0.5-1.6 1-3.1l-0.7-0.2q-0.5 1.5-1 3.1z"/><path class="j" d="m128.9 296.1l0.7 0.3q0.5-1.5 1-3.2l-0.7-0.2q-0.5 1.6-1 3.1z"/><path class="j" d="m133.1 274.6l0.8 0.1q0.2-1.5 0.6-3.1l-0.7-0.2q-0.4 1.7-0.7 3.2z"/><path class="j" d="m130.4 290.9l0.8 0.1q0.3-1.5 0.7-3.1l-0.8-0.2q-0.3 1.6-0.7 3.2z"/><path class="j" d="m131.5 285.5l0.8 0.1q0.2-1.6 0.4-3.2l-0.7-0.1q-0.2 1.6-0.5 3.2z"/><path class="j" d="m132.3 280.1l0.7 0.1q0.2-1.5 0.5-3.3l-0.8-0.1q-0.3 1.8-0.4 3.3z"/><path class="j" d="m178.1 273.8q-1.7 0-3.4 0.5l0.2 0.7q1.6-0.4 3.1-0.4z"/><path class="j" d="m183.1 276.1l0.4-0.7q-0.5-0.2-0.9-0.4-1.1-0.6-2.2-0.8l-0.2 0.7q1 0.3 2.1 0.8 0.4 0.1 0.8 0.4z"/><path class="j" d="m185 324l0.4 0.7q1.4-0.7 2.9-1.5l-0.4-0.6q-1.4 0.7-2.9 1.4z"/><path class="j" d="m189.9 321.5l0.4 0.6q1.5-0.8 2.8-1.6l-0.4-0.6q-1.3 0.8-2.8 1.6z"/><path class="j" d="m194.6 318.7l0.4 0.7q1.7-1.1 2.8-1.9l-0.5-0.6q-1 0.8-2.7 1.8z"/><path class="j" d="m166.3 333.5q1-0.7 1.9-1.3l-0.4-0.6q-0.8 0.5-1.7 1.1 0.1 0.4 0.2 0.8z"/><path class="j" d="m169.8 330.4l0.4 0.7q1.6-0.9 2.9-1.3l-0.2-0.7q-1.4 0.4-3.1 1.3z"/><path class="j" d="m189.3 280.6q1.1 1 2.4 2.1l0.5-0.5q-1.3-1.2-2.4-2.1z"/><path class="j" d="m175 328.5l0.3 0.7q1.3-0.5 3-1.2l-0.3-0.7q-1.7 0.7-3 1.2z"/><path class="j" d="m180.1 326.4l0.3 0.7q1.4-0.7 2.9-1.4l-0.3-0.7q-1.5 0.7-2.9 1.4z"/><path class="j" d="m172.1 276.4q0.4-0.3 0.9-0.5l-0.4-0.7q-0.8 0.5-1.4 0.9 0.5 0.1 0.9 0.3z"/><path class="j" d="m185.4 276.7l-0.4 0.6q1.1 0.8 2.5 1.9l0.5-0.6q-1.4-1.1-2.6-1.9z"/><path class="j" d="m217.7 310q-0.5 0.3-2.6 0.9l0.2 0.7c1.5-0.4 2.4-0.7 2.9-1q0.1-0.1 0.2-0.3l-0.5-0.5q-0.1 0.1-0.2 0.2z"/><path class="j" d="m210.4 298.3l-0.5 0.5q1.5 1.2 2.7 2l0.4-0.6q-1.1-0.8-2.6-1.9z"/><path class="j" d="m214.9 301.3l-0.4 0.7h0.1q1.6 0.8 2.6 1.7l0.5-0.6q-1.1-1-2.8-1.8z"/><path class="j" d="m219.3 304.9l-0.7 0.3q0.4 0.7 0.5 1.4 0.1 0.7-0.1 1.5l0.7 0.2q0.3-0.9 0.1-1.9-0.1-0.8-0.5-1.5z"/><path class="j" d="m211.3 311.9q-0.7 0.1-1.5 0.3l0.1 0.8q0.8-0.2 1.6-0.4 0.8-0.2 1.6-0.4l-0.2-0.7q-0.7 0.2-1.6 0.4z"/><path class="j" d="m204.4 313.6l0.2 0.7q1.4-0.4 3.2-0.8l-0.2-0.7q-1.8 0.4-3.2 0.8z"/><path class="j" d="m199.2 315.6l0.4 0.7q1.2-0.6 2.9-1.3l-0.2-0.7c-1.2 0.5-2.2 0.9-3.1 1.3z"/><path class="j" d="m199.7 288.9q-0.8-0.8-1.7-1.6l-0.5 0.6q0.9 0.8 1.7 1.6l0.7 0.6 0.5-0.6z"/><path class="j" d="m201.6 291.6q1.2 1.1 2.4 2.2l0.5-0.6q-1.2-1-2.4-2.2z"/><path class="j" d="m208.7 296.8q-1.1-0.9-2.5-2.1l-0.5 0.6q1.4 1.2 2.5 2.1z"/><path class="j" d="m196.4 285.8q-1.3-1.1-2.5-2.1l-0.5 0.5q1.2 1.1 2.5 2.2z"/><path class="n" d="m200 244.4c0 0-35.5 11.5-54.6 6.3-1.5-0.3-13.1-2.7-13.1-2.7 0 0 6.5-25 4.7-41.6-0.5-4.4-1.5-13.1-4.6-20.9-1.1-2.8-2.3-5.7-3.4-8.5-3.3-8.3-6.4-15.8-7.8-19.1 2.9-2 5.2-2.5 5.7-2.6q0.1 0 0.1 0c3.2-0.5 7.2-1.4 11.5-2.6 5.5-1.7 11.5-4.2 16.7-7.7l4.8-2.7 5-2.8c0 0 6.2 2.2 12.6 11.4-1.6 2-3.4 3.8-5.3 5.4 2.8 1.8 5.2 2.6 5.2 2.6q1.8-1 3.5-2.5c4.1 7.6 7.8 18.3 9.6 33.6 1.7 13.8 4.6 30 6.8 41.1 1.5 7.9 2.6 13.3 2.6 13.3z"/><path class="e" d="m148 158.5c-6.6-0.6-8.1-3.7-9.5-5.8 5.5-1.7 11.5-4.2 16.7-7.7l3.1-1.8c0.9 0 3.1 1.7 3.1 5 0 4.5-4.6 11.1-13.4 10.3z"/><path class="f" d="m169.1 168l11.5-5.2c0 0 9 13.5 1.7 16.2-7.9 2.8-13.2-11-13.2-11z"/><path class="e" d="m156.7 112.2c0 0 4.9-3.6 2.9-11 0 0-1.6 2.8-3.1 3.1 0 0 3.7-10.2-7.7-15.8 0 0 1.3 5.5-0.1 7.4 0 0-3-6.4-7.5-7.8 0 0 0.7 11.3-6.3 13.6-5 1.7-11.5 7.5-13.3 17 0 0-2.9-0.8-4 0.3 0 0 3.8 0.6 4.3 3 0 0-1.6-0.8-2.8 0.2 0 0 2.7 0.6 3.1 2.6 0.4 2.1 10.4 17.8 16.4 20.4 6 2.7 18.1-33 18.1-33z"/><path class="h" d="m141.2 147.6l0.8 4.7c0.2 1.1 1 2.1 2.2 2.4 9.9 2.6 14.3-3.6 14.8-6-1.3-0.5-24-9.7-27.8-18.5 0 0 2.4 11.8 10 17.4z"/><path class="h" d="m159.6 121.9q1.2 1.7 1.8 3.7 0.6 1.8 0.6 3.6v8.1c0 3-1.9 5.6-4.7 6.6-3.3 1.1-7.8 2.1-12.5 1.1-8.8-2-13.1-12.7-13.1-12.7 0 0-3.6-11 3.8-18.7 5.1-5.3 12-6.3 15.7-6.4 1.6-0.1 3.1 0.7 3.9 2.1l2.8 5.1q0.4 0.6 0.6 1.2c0.6 1.4 1 3 1 4.5z"/><path class="e" d="m149.1 116.7c0 0-7-2.9-8.7 2.9l1.1 0.9c0 0 2.3-4.4 7.8-2.2z"/><path class="i" d="m159.6 121.9q1.2 1.7 1.8 3.7c-1.4-0.3-3.8-0.1-8 2.2 0 0 1.6-2.8 4-3.8 0.6-0.3 0.8-1.1 0.4-1.6l-2.9-3.5c0 0 0.1-1 1-1.7 0.6-0.4 1.7-1.1 2.6-1.6 0.6 1.4 1 3 1 4.5z"/><path class="e" d="m157.8 114.5c-1.6 0.8-2.8 1.8-2.8 1.8l0.4 1.4c1-0.9 2-1.5 3-1.8 0.4-0.2 0.7-0.7 0.5-1.1q0 0 0 0c-0.2-0.3-0.6-0.5-1.1-0.3z"/><path class="m" d="m160 129l-12.4 3.5c0 0 3.9 6 10.2 3.3 5-2.1 2.2-6.8 2.2-6.8z"/><path class="i" d="m156.5 144c0 0-7.8 2-15.9-6.8 0 0-0.4 4.5 4 9.2 4.3 4.6 14.4 2.3 14.4 2.3z"/><path class="h" d="m134.1 129.4c0 0-3.9-3.5-6.5-0.2-2.5 3.2 3.2 12.4 7.3 8.6 4.1-3.7-0.8-8.4-0.8-8.4z"/><path class="e" d="m149.1 121.1c0 0-1.5-1.8-3.5-1.1-2.8 1.1-2.4 3.7-2.4 3.7 0 0 1.3-4.8 5.9-2.6z"/><path class="e" d="m156 120.2c0 0 1-3.1 3.3-0.7 0 0-2-1.3-3.3 0.7z"/><path class="e" d="m132.6 116.9c0 0 3.1 3.7 0.6 7.5l2.5 5.9-2.6 0.7-2.2-3.3-1.7-8.4c0 0 2.1-3.8 3.4-2.4z"/><path class="n" d="m196.8 122.8c0 0-0.3 1.5-1 4.1-2.1 8.2-7.9 26.2-18.3 32 0 0-2.4-0.8-5.2-2.6-4.4-2.7-9.9-7.7-9.4-15.2 0 0 8.9-14.9 12.7-25.3q0.6-1.5 0.9-2.8l16.6 8z"/><path class="e" d="m196.8 122.8c0 0-0.3 1.5-1 4.1-3.9-3-16.3-9.2-20.2-11.1q0.6-1.5 0.9-2.8l16.6 8z"/><path class="f" d="m196.8 122.8c0 0-4.7 23.6-15.8 33.6q-1.7-3.1-3.4-5.5c8.5-10.1 13.7-24.3 15.5-29.9z"/><path class="n" d="m134.1 170.9c-0.4 2-0.7 3.3-0.7 3.3l-1 11.3-1.1 10.8-0.4 3.1c-1.9 2.7-8.3 2.9-14.3 2.5-6.4-0.5-12.3-1.7-12.3-1.7 0 0 0.1-1.2 0.5-3.3 0.9-5 2.9-15.2 6.7-25.5 2.7-7.3 6.5-11.3 9.7-13.5 2.9-2 5.2-2.5 5.7-2.6q0.1 0 0.1 0c8.3 0.8 7.9 10.4 7.1 15.6z"/><path class="e" d="m131.3 196.3l-0.4 3.1c-1.9 2.7-8.3 2.9-14.3 2.5-6.4-0.5-12.3-1.7-12.3-1.7 0 0 0.1-1.2 0.5-3.3 2.6 0.7 9 1.6 14.6 1.7 6.3 0.1 9.9-1.4 11.8-2.3z"/><path class="e" d="m156.6 144.2c0 0 13-2 21.2 5.3 8.2 7.4 16.4 22.8 11.4 32l2.1 13.4c0 0 13.5-21.3-1-42-9.8-13.9-22.4-14.2-28.7-13.3-0.7 2-2.2 3.5-4.3 4.2z"/><path class="e" d="m125.3 155.8c0 0 3.7-8.5 10.6-7.5 6.9 1 27.7 29.1 23.3 49.9-4.4 20.7-22.3 22.9-22.3 22.9 0 0-3.5-5.3 0.4-10.2 0 0 11.8-2.9 15-16.4 3.1-13.4-12.9-40.8-18.8-41.6-2.1-0.4-3.7 1.9-3.7 1.9 0 0-2.5 0.7-4.5 1z"/><path class="f" d="m200 244.4c0 0-35.5 11.5-54.7 6.3-1.4-0.3-13-2.7-13-2.7 0 0 6.5-25 4.7-41.6-0.5-4.4-1.5-13.1-4.6-20.9l-1.5 14c-1.9 2.6-8.3 2.8-14.3 2.4 0 0 9.6-5.1 10.7-16.7 0.3-3.4 0.9-6.1 1.7-8.2 1.9-5.2 4.4-7.2 4.4-7.2 0 0 0.3 0.4 0.6 1.1 1.9 3.2 7.4 13.2 8 21.1 0.8 9.7 3.9 30.3 18.8 42.5 8.3 6.8 36.1 5.8 36.5-3.1q0-0.2 0-0.3c1.6 7.9 2.7 13.3 2.7 13.3z"/></svg>